<svg width="123" height="26" viewBox="0 0 123 26" fill="none" xmlns="http://www.w3.org/2000/svg">
<g clip-path="url(#clip0_1_4580)">
<path fill-rule="evenodd" clip-rule="evenodd" d="M15.1402 8.51068C15.1402 9.40825 15.144 9.77109 15.1487 9.31705C15.1535 8.86282 15.1535 8.12845 15.1487 7.6851C15.144 7.24158 15.1402 7.61312 15.1402 8.51068ZM25.947 8.91867C25.947 8.94351 25.9586 8.9912 25.973 9.02438C25.9893 9.06246 25.999 9.06809 25.999 9.03962C25.999 9.01459 25.9873 8.96708 25.973 8.93372C25.9566 8.89564 25.947 8.89002 25.947 8.91867ZM26.0059 9.19066C26.0068 9.2155 26.0193 9.26319 26.0335 9.29637L26.0597 9.35694L26.0613 9.29637C26.0622 9.26319 26.0497 9.2155 26.0335 9.19066C26.0075 9.15041 26.0044 9.15041 26.0059 9.19066ZM22.8825 9.62313C22.8825 9.62838 22.9269 9.67263 22.981 9.72141L23.0794 9.81026L22.9905 9.71198C22.9076 9.62041 22.8825 9.59992 22.8825 9.62313ZM15.1375 10.6563C15.1375 10.8393 15.1425 10.9102 15.1485 10.8139C15.1545 10.7178 15.1545 10.5682 15.1484 10.4815C15.1422 10.3949 15.1373 10.4736 15.1375 10.6563ZM23.9336 10.5631C23.9805 10.6034 24.024 10.6308 24.0305 10.6244C24.0453 10.6097 23.9067 10.4926 23.8731 10.4911C23.8596 10.4906 23.8869 10.5231 23.9336 10.5631ZM24.0642 10.6507C24.0642 10.656 24.1085 10.7002 24.1627 10.749L24.261 10.8377L24.1721 10.7396C24.0892 10.648 24.0642 10.6273 24.0642 10.6507ZM26.3696 10.7597C26.368 10.7833 26.4 10.9329 26.4404 11.0921C26.4809 11.2514 26.5223 11.4206 26.5327 11.4683C26.5431 11.516 26.5585 11.5481 26.5671 11.5396C26.584 11.5227 26.4969 11.0728 26.4674 11.0255C26.4576 11.0096 26.4322 10.9336 26.4109 10.8567C26.3896 10.7798 26.3711 10.7361 26.3696 10.7597ZM24.4906 11.0523C24.531 11.0955 24.6186 11.1726 24.6853 11.2235C24.7595 11.2805 24.7361 11.2502 24.6246 11.145C24.4346 10.966 24.3647 10.9176 24.4906 11.0523ZM15.1389 11.6386C15.1389 11.9793 15.1433 12.1187 15.1487 11.9483C15.154 11.778 15.154 11.4991 15.1487 11.3289C15.1433 11.1584 15.1389 11.2979 15.1389 11.6386ZM24.9415 11.4346C25.0671 11.568 25.0944 11.592 25.0944 11.5693C25.0944 11.5644 25.0295 11.4999 24.9504 11.4257L24.8064 11.291L24.9415 11.4346ZM16.7698 11.5329C16.7701 11.5992 16.7763 11.623 16.7836 11.5853C16.7909 11.5477 16.7907 11.4933 16.783 11.4645C16.7754 11.4355 16.7696 11.4663 16.7698 11.5329ZM22.9583 11.5942C23.2606 11.8752 23.3428 11.945 23.3555 11.9323C23.3632 11.9249 23.2496 11.8203 23.1032 11.7C22.9569 11.5798 22.8916 11.5321 22.9583 11.5942ZM25.1271 11.5992C25.1307 11.6346 25.4609 11.9176 25.4781 11.9004C25.4861 11.8924 25.4289 11.8268 25.3507 11.7546C25.1967 11.6125 25.1233 11.5613 25.1271 11.5992ZM26.5654 11.631C26.5716 11.6602 26.6005 11.7927 26.6294 11.9256C26.6585 12.0587 26.6836 12.1742 26.6852 12.1826C26.687 12.1909 26.6992 12.2429 26.7123 12.2982C26.7643 12.5167 26.7879 12.7887 26.7529 12.7672C26.7403 12.7594 26.7221 12.7733 26.7125 12.7983C26.689 12.8595 26.5407 12.7938 26.3798 12.6509C26.1273 12.4268 25.9232 12.2509 25.8803 12.2206C25.851 12.2 25.7617 12.1224 25.6817 12.048C25.6018 11.9737 25.5294 11.9198 25.521 11.9282C25.5058 11.9434 25.6003 12.0319 25.8514 12.2375C25.9262 12.2986 26.0081 12.3717 26.0331 12.3996C26.174 12.5561 26.6281 12.9079 26.6892 12.9079C26.8399 12.9079 26.8598 12.6843 26.7483 12.2429C26.7083 12.0852 26.6598 11.8779 26.6405 11.7827C26.6211 11.6874 26.5938 11.6023 26.5798 11.5938C26.5658 11.5851 26.5592 11.6019 26.5654 11.631ZM16.7698 11.8955C16.7701 11.9619 16.7763 11.9856 16.7836 11.9479C16.7909 11.9104 16.7907 11.856 16.783 11.8272C16.7754 11.7981 16.7696 11.829 16.7698 11.8955ZM23.5793 12.1497C23.5793 12.1679 23.591 12.1826 23.6053 12.1826C23.6195 12.1826 23.6649 12.2132 23.7064 12.2506C23.7478 12.2879 23.8146 12.3458 23.8547 12.3789L23.9278 12.4395L23.8673 12.3681C23.7773 12.2622 23.5793 12.1122 23.5793 12.1497ZM15.1304 16.0207C15.1246 18.0733 15.1224 19.8578 15.1255 19.986C15.1315 20.2291 15.1091 20.3212 15.0622 20.2473C15.0431 20.2173 15.036 20.2244 15.0357 20.2739C15.0353 20.3205 14.9951 20.3666 14.9064 20.4217C14.6252 20.5969 14.4439 20.72 14.4343 20.7421C14.4287 20.755 14.411 20.7653 14.3948 20.7653C14.3788 20.7653 14.2879 20.8163 14.1929 20.8786C14.098 20.9408 14.0065 20.9987 13.9898 21.0072C13.9618 21.0214 13.8842 21.071 13.4293 21.3662C13.3377 21.4257 13.2581 21.4848 13.2526 21.4977C13.247 21.5104 13.2266 21.5213 13.2072 21.5216C13.1877 21.5222 13.0218 21.6232 12.8385 21.7461C12.6553 21.8691 12.5009 21.9579 12.4957 21.9434C12.4904 21.9291 12.4695 21.9236 12.4491 21.9312C12.4026 21.9492 12.2717 21.8239 12.1961 21.689C12.1783 21.6573 12.1383 21.6277 12.1072 21.6234C12.0586 21.6165 12.057 21.6205 12.0963 21.6513C12.1212 21.671 12.1781 21.7416 12.2226 21.8079C12.327 21.9641 12.4468 22.0981 12.4653 22.0794C12.4735 22.0714 12.48 22.0827 12.48 22.1042C12.48 22.1385 12.7296 22.476 13.187 23.0598C13.2619 23.1556 13.4517 23.4025 13.6086 23.6089C13.8931 23.9832 13.9305 24.0312 14.1583 24.3164C14.2983 24.4916 14.2792 24.4671 14.487 24.7395C14.9124 25.297 14.9404 25.3288 15.0091 25.3288C15.1631 25.3288 15.1571 25.6111 15.1487 18.7036C15.1429 13.7567 15.1385 13.1427 15.1304 16.0207ZM24.0036 12.5138C24.0036 12.53 24.0342 12.5592 24.0718 12.5788C24.1396 12.6143 24.1396 12.6141 24.0822 12.5496C24.018 12.4776 24.0036 12.4711 24.0036 12.5138ZM24.3759 12.8399C24.4628 12.9187 24.5385 12.9938 24.5441 13.0065C24.5495 13.019 24.5837 13.0437 24.6197 13.0609C24.6557 13.0783 24.5899 13.0036 24.4732 12.8952C24.3565 12.7867 24.2514 12.6975 24.2396 12.6972C24.228 12.6966 24.2892 12.761 24.3759 12.8399ZM24.8415 13.2598C24.9273 13.3405 25.0324 13.4337 25.0749 13.4669C25.1173 13.5003 25.1527 13.5443 25.1535 13.5652C25.1544 13.586 25.1753 13.6029 25.2004 13.6029C25.2253 13.6029 25.2458 13.6227 25.2458 13.6468C25.2458 13.6709 25.2694 13.7037 25.2982 13.7199C25.3445 13.7458 25.3411 13.7534 25.2678 13.7866C25.2224 13.8072 25.1853 13.8341 25.1853 13.8461C25.1853 13.858 25.1613 13.876 25.1322 13.8856C25.0807 13.903 24.9735 13.9654 24.9428 13.9958C24.9344 14.0042 24.8799 14.0372 24.8217 14.0691C24.7633 14.1012 24.7088 14.1351 24.7004 14.1447C24.6735 14.1755 24.4914 14.2981 24.4725 14.2981C24.4623 14.2981 24.4094 14.332 24.3547 14.3735C24.3001 14.4152 24.246 14.4491 24.2343 14.4491C24.2132 14.4491 24.0325 14.5694 24.0036 14.6026C23.9953 14.6122 23.9407 14.6461 23.8824 14.6782C23.824 14.7101 23.7695 14.7431 23.7611 14.7514C23.7387 14.7737 23.6313 14.8395 23.5793 14.8628C23.5544 14.8738 23.5271 14.8907 23.5188 14.9003C23.4917 14.9311 23.3097 15.0535 23.2908 15.0535C23.2806 15.0535 23.2277 15.0876 23.173 15.1291C23.1185 15.1706 23.0643 15.2047 23.0527 15.2047C23.0316 15.2047 22.8509 15.325 22.822 15.3581C22.8136 15.3676 22.7591 15.4017 22.7007 15.4336C22.6424 15.4657 22.5878 15.4985 22.5795 15.5068C22.5571 15.5293 22.4497 15.595 22.3977 15.6182C22.3728 15.6294 22.3455 15.6463 22.3371 15.6559C22.3101 15.6867 22.1281 15.8091 22.1092 15.8091C22.099 15.8091 22.0461 15.8432 21.9914 15.8847C21.9368 15.9262 21.8774 15.9601 21.8596 15.9601C21.8418 15.9601 21.8225 15.9707 21.817 15.9835C21.8021 16.0176 21.4689 16.2321 21.4305 16.2321C21.4125 16.2321 21.3978 16.2443 21.3978 16.259C21.3978 16.2737 21.374 16.2936 21.3449 16.3034C21.2911 16.3214 21.1833 16.3848 21.1555 16.4147C21.1195 16.4535 20.7003 16.7157 20.6743 16.7157C20.6585 16.7157 20.6408 16.7263 20.6354 16.7389C20.6238 16.7658 20.2913 16.9877 20.2629 16.9877C20.2525 16.9877 20.2274 17.0022 20.2074 17.02C20.1382 17.0811 19.5192 17.4713 19.4916 17.4713C19.4763 17.4713 19.4592 17.4817 19.4537 17.4945C19.4421 17.5212 19.1096 17.7433 19.0812 17.7433C19.0709 17.7433 19.0458 17.7576 19.0258 17.7754C18.9471 17.8445 18.3408 18.2267 18.3099 18.2267C18.2919 18.2267 18.2768 18.2371 18.2763 18.2494C18.2757 18.2619 18.1661 18.3401 18.0325 18.4233C17.8991 18.5063 17.6635 18.6559 17.5091 18.7557C17.3548 18.8554 17.151 18.9869 17.0563 19.048C16.9357 19.1256 16.8772 19.1482 16.8614 19.1234C16.8488 19.104 16.8287 18.2518 16.8163 17.2294C16.8041 16.2073 16.7894 15.2961 16.7838 15.2047C16.7779 15.1132 16.7743 17.333 16.7754 20.1374L16.7774 25.2365L16.845 25.3039L16.9128 25.3716L16.9961 25.3096C17.0417 25.2755 17.1204 25.1922 17.1706 25.1246C17.2421 25.0287 17.6425 24.5221 17.7858 24.3465C17.8153 24.3104 18.0719 23.9772 18.3912 23.5608C18.5184 23.3946 18.6984 23.1626 18.7907 23.0453C18.8833 22.928 18.9929 22.786 19.0345 22.7298C19.0763 22.6736 19.1856 22.5314 19.2776 22.4141C19.3698 22.2968 19.4719 22.1657 19.5048 22.1225C19.5379 22.0794 19.6466 21.9383 19.7466 21.8092C19.8466 21.6799 19.9573 21.5343 19.9928 21.4859C20.0282 21.4373 20.0967 21.3541 20.1453 21.3006C20.1938 21.2473 20.2738 21.1476 20.3232 21.079C20.3727 21.0103 20.4905 20.854 20.585 20.7314C20.6796 20.6088 20.8535 20.3793 20.9719 20.2213C21.0902 20.0636 21.2242 19.889 21.2697 19.8337C21.3742 19.7065 21.4767 19.5749 21.761 19.2034C21.8859 19.0402 22.0699 18.803 22.1701 18.6762C22.2702 18.5495 22.4068 18.3745 22.4735 18.2875C22.5402 18.2006 22.6107 18.1125 22.6302 18.0918C22.6498 18.0713 22.7044 18.0001 22.7514 17.9337C22.8603 17.7801 23.0592 17.5196 23.2912 17.2256C23.3913 17.0989 23.5455 16.9016 23.6337 16.7874C23.7218 16.6731 23.9096 16.4301 24.0511 16.2474C24.1925 16.0644 24.3552 15.8537 24.4127 15.7788C24.5883 15.5502 25.2489 14.6983 25.4645 14.4225C25.7465 14.0618 25.7455 14.01 25.4534 13.7501C25.3343 13.6442 25.1991 13.5237 25.1529 13.4821C24.7857 13.1516 24.5394 12.9759 24.8415 13.2598ZM10.3085 19.345C10.3442 19.3948 10.3802 19.4356 10.3885 19.4356C10.3969 19.4356 10.3745 19.3948 10.3389 19.345C10.3033 19.2951 10.2673 19.2543 10.2591 19.2543C10.2507 19.2543 10.2731 19.2951 10.3085 19.345ZM10.7156 19.8663C10.7623 19.9287 10.8063 19.9796 10.8132 19.9796C10.8399 19.9796 10.7654 19.8703 10.6997 19.813C10.6432 19.7638 10.6461 19.7735 10.7156 19.8663ZM11.0012 20.244C11.0391 20.298 11.0766 20.3423 11.0844 20.3423C11.1106 20.3423 11.0395 20.2319 10.9855 20.1887C10.9477 20.1582 10.9521 20.1744 11.0012 20.244ZM11.2351 20.5392C11.2795 20.597 11.3202 20.6446 11.3258 20.6446C11.3513 20.6446 11.2282 20.4623 11.1937 20.4491C11.1722 20.4407 11.1909 20.4814 11.2351 20.5392ZM11.4162 20.7729C11.4649 20.827 11.5153 20.8841 11.5278 20.8999C11.5423 20.9178 11.5509 20.9176 11.5509 20.899C11.5509 20.8634 11.3818 20.6747 11.35 20.6747C11.3375 20.6747 11.3673 20.7189 11.4162 20.7729ZM11.6729 21.0979C11.7427 21.1893 11.8143 21.2694 11.8319 21.2758C11.8688 21.2894 11.8492 21.2641 11.67 21.0676L11.546 20.9316L11.6729 21.0979ZM11.9712 21.4814C11.9901 21.518 12.0201 21.5566 12.0377 21.5675C12.0981 21.6047 12.0844 21.5664 12.0105 21.4906C11.9436 21.4223 11.9399 21.4214 11.9712 21.4814Z" fill="#FC3146"/>
<path fill-rule="evenodd" clip-rule="evenodd" d="M26.146 9.91664C26.1549 9.95 26.1764 9.98627 26.1938 9.99715C26.2138 10.0095 26.2182 9.99715 26.2053 9.96397C26.1942 9.93495 26.1851 9.89869 26.1851 9.88346C26.1851 9.86822 26.1728 9.85571 26.1577 9.85571C26.1426 9.85571 26.1373 9.88309 26.146 9.91664ZM26.2286 10.2962C26.2351 10.3281 26.2493 10.3767 26.2602 10.404C26.2711 10.4316 26.2662 10.4626 26.2491 10.4731C26.232 10.4836 26.224 10.5089 26.2315 10.529C26.2511 10.5825 26.0619 10.7623 25.9861 10.7623C25.9753 10.7623 25.9168 10.8012 25.8561 10.8488C25.7954 10.8963 25.6979 10.9595 25.6397 10.989C25.5814 11.0186 25.5269 11.0521 25.5185 11.0633C25.5101 11.0748 25.4556 11.1103 25.3972 11.1424C25.3389 11.1743 25.2845 11.2073 25.2762 11.2157C25.1609 11.3306 24.9428 11.41 24.9428 11.3372C24.9428 11.3208 24.9097 11.2991 24.8693 11.2889C24.8288 11.2789 24.7884 11.2514 24.7793 11.228C24.7702 11.2046 24.7457 11.1854 24.7246 11.1854C24.6864 11.1854 25.0555 11.5352 25.1549 11.5934C25.2031 11.6217 25.5425 11.9172 25.7321 12.0962C25.7785 12.1399 25.8428 12.1943 25.875 12.217C25.9223 12.2503 26.12 12.4206 26.3798 12.651C26.5407 12.7939 26.689 12.8596 26.7125 12.7985C26.7221 12.7734 26.7403 12.7595 26.7529 12.7673C26.7879 12.7889 26.7643 12.5169 26.7123 12.2984C26.6992 12.2431 26.687 12.191 26.6852 12.1827C26.6836 12.1743 26.6596 12.0655 26.632 11.941C26.6043 11.8162 26.5745 11.6735 26.5658 11.6237C26.5393 11.473 26.4996 11.3043 26.4271 11.0343C26.3893 10.8929 26.36 10.746 26.3624 10.7078C26.3646 10.6695 26.3542 10.6456 26.3391 10.6548C26.3242 10.6641 26.3186 10.6459 26.3269 10.6146C26.3351 10.5832 26.3271 10.5484 26.3089 10.5373C26.2907 10.5261 26.276 10.5034 26.276 10.4867C26.276 10.47 26.2891 10.4646 26.3051 10.4744C26.3218 10.4849 26.3202 10.4506 26.3009 10.3932C26.2626 10.2786 26.2109 10.2093 26.2286 10.2962ZM24.5186 11.0218C24.5186 11.0394 24.5528 11.0858 24.5944 11.125C24.6361 11.164 24.6701 11.1861 24.6701 11.1741C24.6701 11.1624 24.6361 11.1159 24.5944 11.071C24.5528 11.0262 24.5186 11.0041 24.5186 11.0218ZM23.4582 12.0918C23.4582 12.1285 23.5431 12.1684 23.568 12.1435C23.5771 12.1344 23.5561 12.112 23.5213 12.0935C23.4775 12.0701 23.4582 12.0695 23.4582 12.0918ZM23.5902 12.2278C23.6017 12.2574 23.5635 12.3051 23.4799 12.3658C23.2874 12.5056 22.9798 12.6964 22.9469 12.6964C22.9309 12.6964 22.9132 12.7067 22.9078 12.719C22.9021 12.7316 22.8431 12.7771 22.7765 12.8204C22.6364 12.9113 22.2179 13.1811 21.9685 13.3415C21.8739 13.4023 21.783 13.452 21.7665 13.452C21.7498 13.452 21.7316 13.4621 21.7261 13.4746C21.7205 13.4871 21.6614 13.5327 21.5949 13.5758C21.3031 13.7649 20.9448 13.9954 20.7768 14.1017C20.6768 14.1649 20.5199 14.2667 20.4283 14.328C20.3367 14.3893 20.248 14.4449 20.2314 14.4518C20.2147 14.4587 20.0989 14.5312 19.9738 14.6128C19.849 14.6944 19.6717 14.8087 19.5799 14.8667C19.4883 14.9247 19.3383 15.0223 19.2467 15.0836C19.1551 15.1447 19.0663 15.2005 19.0498 15.2074C19.0331 15.2143 18.9205 15.2845 18.7998 15.3635C18.6789 15.4424 18.4813 15.5717 18.3604 15.6506C18.2396 15.7294 18.1272 15.7993 18.1105 15.8056C18.0938 15.8119 18.0598 15.8348 18.0347 15.8564C18.0096 15.8779 17.955 15.9138 17.9134 15.9362C17.8718 15.9583 17.7356 16.043 17.6106 16.124C17.4857 16.2051 17.3288 16.3068 17.2621 16.3501C17.1955 16.3935 17.1364 16.439 17.1308 16.4515C17.1253 16.4638 17.103 16.4742 17.0815 16.4742C17.0599 16.4742 17.0254 16.4945 17.0046 16.5195C16.8836 16.6649 16.8574 16.5761 16.8261 15.9149C16.8101 15.5755 16.8058 15.9498 16.813 17.0181C16.8288 19.3422 16.8123 19.2051 17.0563 19.0481C17.151 18.987 17.3548 18.8555 17.5091 18.7558C17.6635 18.6561 17.8991 18.5065 18.0325 18.4234C18.1661 18.3402 18.2757 18.262 18.2763 18.2495C18.2768 18.2372 18.2919 18.2269 18.3099 18.2269C18.3408 18.2269 18.9471 17.8446 19.0258 17.7755C19.0458 17.7578 19.0709 17.7434 19.0812 17.7434C19.1096 17.7434 19.4421 17.5213 19.4537 17.4947C19.4592 17.4818 19.4763 17.4715 19.4916 17.4715C19.5192 17.4715 20.1382 17.0812 20.2074 17.0201C20.2274 17.0024 20.2525 16.9879 20.2629 16.9879C20.2913 16.9879 20.6238 16.7659 20.6354 16.7391C20.6408 16.7264 20.6585 16.7159 20.6743 16.7159C20.7003 16.7159 21.1195 16.4537 21.1555 16.4149C21.1833 16.3849 21.2911 16.3215 21.3449 16.3035C21.374 16.2937 21.3978 16.2738 21.3978 16.2591C21.3978 16.2444 21.4125 16.2323 21.4305 16.2323C21.4689 16.2323 21.8021 16.0178 21.817 15.9837C21.8225 15.9708 21.8418 15.9603 21.8596 15.9603C21.8774 15.9603 21.9368 15.9264 21.9914 15.8848C22.0461 15.8433 22.099 15.8092 22.1092 15.8092C22.1281 15.8092 22.3101 15.6868 22.3371 15.656C22.3455 15.6464 22.3728 15.6295 22.3977 15.6183C22.4497 15.5951 22.5571 15.5294 22.5795 15.507C22.5878 15.4986 22.6424 15.4658 22.7007 15.4337C22.7591 15.4018 22.8136 15.3677 22.822 15.3583C22.8509 15.3251 23.0316 15.2049 23.0527 15.2049C23.0643 15.2049 23.1185 15.1708 23.173 15.1292C23.2277 15.0877 23.2806 15.0536 23.2908 15.0536C23.3079 15.0536 23.485 14.9363 23.5188 14.9026C23.5413 14.8801 23.6486 14.8145 23.7006 14.7913C23.7255 14.7802 23.7527 14.7631 23.7611 14.7537C23.7695 14.7441 23.824 14.7102 23.8824 14.6783C23.9407 14.6462 23.9953 14.6123 24.0036 14.6027C24.0325 14.5695 24.2132 14.4493 24.2343 14.4493C24.246 14.4493 24.3001 14.4154 24.3547 14.3737C24.4094 14.3321 24.4623 14.2982 24.4725 14.2982C24.4914 14.2982 24.6735 14.1756 24.7004 14.1448C24.7088 14.1352 24.7633 14.1013 24.8217 14.0692C24.8799 14.0373 24.9344 14.0043 24.9428 13.996C24.9735 13.9655 25.0807 13.9031 25.1322 13.8857C25.1613 13.8761 25.1853 13.8581 25.1853 13.8462C25.1853 13.8342 25.2224 13.8074 25.2678 13.7867C25.3411 13.7535 25.3445 13.7459 25.2982 13.72C25.2694 13.7038 25.2458 13.671 25.2458 13.6469C25.2458 13.6228 25.2253 13.603 25.2004 13.603C25.1753 13.603 25.1544 13.5862 25.1535 13.5653C25.1527 13.5444 25.1171 13.5004 25.0742 13.467C25.0315 13.4338 24.9195 13.3363 24.8257 13.2502C24.7317 13.1642 24.5684 13.0146 24.4626 12.9178C24.357 12.821 24.2523 12.7314 24.2301 12.7189C24.2078 12.7062 24.1363 12.6451 24.0711 12.5829C23.7024 12.2316 23.5479 12.1174 23.5902 12.2278ZM15.0676 17.6336C15.0656 17.7117 14.9131 17.8925 14.848 17.8939C14.8366 17.8943 14.8088 17.9115 14.7861 17.9322C14.7633 17.9531 14.7181 17.9862 14.6855 18.006C14.6528 18.0258 14.517 18.1112 14.3838 18.1959C14.2505 18.2805 14.1142 18.3663 14.0807 18.3866C14.0474 18.4067 14.0134 18.4316 14.0051 18.4417C13.9967 18.4519 13.9422 18.4847 13.8838 18.5144C13.7566 18.5795 13.5999 18.6865 13.5859 18.7181C13.5804 18.7304 13.5653 18.7407 13.5524 18.7407C13.5328 18.7407 13.1772 18.9612 13.0792 19.0341C13.002 19.0918 12.9254 19.1366 12.8763 19.1531C12.8472 19.1629 12.8234 19.1808 12.8234 19.193C12.8234 19.2051 12.7689 19.2396 12.7022 19.2695C12.6355 19.2996 12.5809 19.3339 12.5809 19.346C12.5809 19.3582 12.54 19.3848 12.49 19.4055C12.44 19.4262 12.3991 19.455 12.3991 19.4697C12.3991 19.4842 12.3875 19.4961 12.3733 19.4961C12.3517 19.4961 12.0016 19.7121 11.8976 19.7897C11.8203 19.8474 11.7438 19.8922 11.6947 19.9087C11.6656 19.9183 11.6418 19.9368 11.6418 19.9495C11.6418 19.962 11.5996 19.9897 11.5482 20.0111C11.4969 20.0323 11.4385 20.0646 11.4187 20.0827C11.2166 20.2677 11.0886 20.2862 11.0021 20.1433C10.9752 20.0991 10.9455 20.0753 10.9359 20.0905C10.9264 20.1058 10.9792 20.1839 11.053 20.2641C11.1268 20.3444 11.1873 20.422 11.1873 20.4367C11.1873 20.4514 11.1979 20.4633 11.2106 20.4633C11.2235 20.4633 11.2595 20.5105 11.2907 20.5682C11.3218 20.6258 11.3591 20.6659 11.3733 20.657C11.3876 20.6483 11.3996 20.6588 11.3998 20.6806C11.4002 20.7023 11.4342 20.7522 11.4756 20.7914C11.5169 20.8305 11.5513 20.878 11.5516 20.8971C11.5522 20.9161 11.6032 20.9877 11.6652 21.0563C11.7272 21.1248 11.7985 21.2115 11.8236 21.2489C11.8485 21.2864 11.887 21.3355 11.909 21.3586C11.931 21.3814 11.9408 21.4001 11.9307 21.4001C11.9207 21.4001 11.9506 21.4376 11.9976 21.4833C12.0445 21.529 12.0892 21.58 12.097 21.5966C12.105 21.6131 12.1212 21.6235 12.1332 21.6195C12.1452 21.6155 12.1712 21.6425 12.191 21.6793C12.2108 21.7163 12.2419 21.7633 12.2601 21.7838C12.3553 21.8913 12.384 21.9294 12.384 21.9484C12.384 21.9598 12.3964 21.9807 12.4117 21.9945C12.4275 22.009 12.4308 22.0048 12.4193 21.985C12.4084 21.966 12.4189 21.943 12.4429 21.9339C12.4668 21.9248 12.4904 21.9292 12.4957 21.9435C12.5009 21.958 12.6553 21.8692 12.8385 21.7462C13.0218 21.6233 13.1877 21.5223 13.2072 21.5218C13.2266 21.5214 13.247 21.5105 13.2526 21.4978C13.2581 21.4849 13.3377 21.4258 13.4293 21.3664C13.8842 21.0712 13.9618 21.0215 13.9898 21.0073C14.0065 20.9988 14.098 20.941 14.1929 20.8788C14.2879 20.8164 14.3788 20.7654 14.3948 20.7654C14.411 20.7654 14.4287 20.7551 14.4343 20.7422C14.4439 20.7201 14.6252 20.597 14.9064 20.4218C14.9929 20.368 15.036 20.3196 15.0375 20.274C15.0389 20.2369 15.0469 20.2235 15.0553 20.2443C15.0637 20.2653 15.0829 20.2748 15.098 20.2655C15.1324 20.2443 15.1293 17.6909 15.0947 17.6074C15.0731 17.5552 15.0695 17.5587 15.0676 17.6336ZM10.6116 19.7172C10.6116 19.7224 10.6559 19.7667 10.7101 19.8155L10.8085 19.9041L10.7196 19.806C10.6367 19.7145 10.6116 19.6938 10.6116 19.7172Z" fill="#FC5234"/>
<path fill-rule="evenodd" clip-rule="evenodd" d="M24.4329 2.51176C24.4345 2.59028 24.4821 2.7192 24.4832 2.64776C24.4838 2.6144 24.4723 2.56 24.4581 2.52681C24.4421 2.48982 24.4323 2.48402 24.4329 2.51176ZM24.5238 2.85918C24.5234 2.89255 24.5347 2.94695 24.549 2.98013C24.5821 3.05719 24.5821 2.97777 24.549 2.87442C24.5294 2.81367 24.5245 2.81059 24.5238 2.85918ZM25.0759 5.36676C25.0869 5.44128 25.1246 5.4576 25.1246 5.38779C25.1246 5.35171 25.1122 5.32233 25.0969 5.32233C25.0819 5.32233 25.0724 5.34228 25.0759 5.36676ZM25.1033 5.55643C25.1119 5.60212 25.1289 5.67103 25.1409 5.70947C25.1586 5.76513 25.1498 5.78254 25.0984 5.79596C25.0628 5.80521 25.0337 5.82316 25.0337 5.83585C25.0337 5.84854 24.9928 5.87574 24.9428 5.89641C24.8928 5.91708 24.8519 5.94592 24.8519 5.9606C24.8519 5.97511 24.8373 5.98708 24.8197 5.98708C24.8019 5.98708 24.7426 6.02117 24.6879 6.06269C24.6334 6.10422 24.5799 6.13831 24.5692 6.13831C24.5583 6.13831 24.4599 6.19941 24.3503 6.2743C24.2409 6.34901 24.1385 6.4103 24.1229 6.4103C24.1073 6.4103 24.0945 6.42226 24.0945 6.43695C24.0945 6.45164 24.0705 6.47159 24.0415 6.48138C23.9817 6.50132 23.8893 6.5588 23.8304 6.6123C23.8088 6.63188 23.7639 6.65672 23.7308 6.66724C23.6975 6.67775 23.6702 6.69897 23.6702 6.71456C23.6702 6.72998 23.6557 6.74267 23.6381 6.74267C23.6203 6.74267 23.561 6.77676 23.5063 6.81828C23.4517 6.85981 23.3966 6.89371 23.3839 6.89371C23.3712 6.89371 23.3112 6.93125 23.2503 6.97694C23.1027 7.08792 23.0296 7.13379 22.9658 7.15501C22.9367 7.1648 22.9129 7.18329 22.9129 7.19599C22.9129 7.20868 22.8889 7.22717 22.8598 7.23697C22.7991 7.25727 22.7071 7.31457 22.6468 7.3697C22.624 7.39055 22.5939 7.4076 22.5795 7.4076C22.5653 7.4076 22.5355 7.42464 22.5135 7.44531C22.4608 7.49518 22.2226 7.6493 22.1983 7.6493C22.1877 7.6493 22.1296 7.68666 22.0687 7.73235C21.921 7.8435 21.848 7.8892 21.7842 7.9106C21.7551 7.92039 21.7313 7.93725 21.7313 7.94813C21.7313 7.95901 21.68 7.99473 21.6176 8.02755C21.5551 8.06019 21.4971 8.09501 21.4887 8.10498C21.4122 8.19582 21.2615 8.17298 21.1788 8.05802C21.1646 8.03843 21.1562 8.04133 21.1561 8.06581C21.1557 8.08703 21.1759 8.11223 21.2008 8.12184C21.2257 8.13145 21.239 8.15067 21.2302 8.16464C21.2095 8.198 21.3077 8.24823 21.3731 8.23771C21.406 8.23227 21.4182 8.24442 21.4077 8.2718C21.3973 8.29864 21.412 8.31441 21.4477 8.31459C21.4951 8.31496 21.4967 8.31967 21.4586 8.34433C21.4233 8.367 21.4224 8.3737 21.4542 8.37407C21.4769 8.37443 21.5567 8.43917 21.6318 8.51823C21.7067 8.5971 21.7585 8.64134 21.7469 8.61632C21.7353 8.59148 21.7718 8.61868 21.8281 8.67689C21.8843 8.73491 22.0032 8.84044 22.0923 8.91098C22.1814 8.98169 22.2426 9.03954 22.2283 9.03954C22.2141 9.03954 22.2363 9.06275 22.2774 9.09122C22.3186 9.11969 22.3766 9.17354 22.4064 9.21071C22.4362 9.24806 22.4788 9.27164 22.501 9.26311C22.5242 9.25405 22.5482 9.27382 22.5575 9.30954C22.5664 9.34363 22.5989 9.38098 22.6297 9.3924C22.6604 9.40365 22.7162 9.44807 22.7536 9.49068C22.7913 9.53347 22.8218 9.55505 22.8218 9.53892C22.822 9.52278 22.8431 9.53982 22.8691 9.57681C22.8951 9.61362 22.936 9.6439 22.96 9.6439C22.984 9.6439 23.0038 9.66421 23.0038 9.68923C23.0038 9.71408 23.0242 9.73457 23.0492 9.73457C23.0741 9.73457 23.0912 9.75161 23.0871 9.77228C23.0829 9.79313 23.0965 9.80673 23.1174 9.80256C23.1381 9.79839 23.1552 9.81635 23.1552 9.84246C23.1552 9.87528 23.1729 9.88416 23.2132 9.87129C23.2452 9.86131 23.2814 9.86929 23.2938 9.88906C23.3077 9.91191 23.3032 9.91734 23.281 9.90374C23.2619 9.89178 23.2461 9.89559 23.2461 9.91209C23.2461 10.0176 23.7175 9.79368 23.9913 9.55795C24.0095 9.54236 24.0709 9.50555 24.1276 9.47617C24.2532 9.41144 24.409 9.30464 24.4227 9.27363C24.4283 9.2613 24.4459 9.25097 24.4618 9.25097C24.4778 9.25097 24.5278 9.22594 24.5728 9.1953C24.6181 9.16466 24.7165 9.1001 24.7914 9.05187C24.8662 9.00364 24.9344 8.95722 24.9428 8.94888C24.9731 8.91841 25.0806 8.85604 25.1322 8.83863C25.1613 8.82884 25.1853 8.81143 25.1853 8.79983C25.1853 8.78822 25.2358 8.75467 25.2978 8.72512C25.3596 8.69574 25.4585 8.63373 25.5174 8.58767C25.5763 8.54143 25.6563 8.49375 25.6949 8.48178C25.7399 8.46763 25.7592 8.44388 25.7483 8.41559C25.739 8.39129 25.7434 8.37897 25.7581 8.38803C25.7728 8.3971 25.7923 8.38531 25.8012 8.36192C25.8103 8.33835 25.7965 8.31115 25.7708 8.30118C25.7334 8.28685 25.7281 8.25512 25.7447 8.14433C25.759 8.04931 25.7554 8.01178 25.7334 8.02538C25.7125 8.03825 25.7049 8.01287 25.7118 7.95375C25.7178 7.90352 25.7109 7.86944 25.6965 7.87832C25.6821 7.88721 25.6703 7.86309 25.6701 7.82465C25.6694 7.70098 25.6512 7.60542 25.6158 7.53996C25.5969 7.50479 25.588 7.46925 25.5961 7.46109C25.6043 7.45293 25.5971 7.40941 25.58 7.36462C25.5629 7.31983 25.5432 7.23969 25.5361 7.18656C25.5291 7.13361 25.5011 7.00178 25.4742 6.89371C25.4473 6.78564 25.4191 6.67014 25.4118 6.63696C25.4045 6.60359 25.3698 6.45399 25.3347 6.3044C25.2996 6.1548 25.2647 5.99161 25.2569 5.94175C25.2264 5.74428 25.1764 5.59614 25.1468 5.61445C25.1269 5.6266 25.1231 5.60466 25.136 5.55353C25.1489 5.50221 25.1438 5.47338 25.1218 5.47338C25.1008 5.47338 25.0935 5.50547 25.1033 5.55643ZM20.9434 7.90026C20.9434 7.9057 20.9861 7.94994 21.0381 7.99872C21.1044 8.06092 21.1212 8.06853 21.0943 8.02393C21.061 7.96916 20.9434 7.8727 20.9434 7.90026ZM10.7158 8.19528C10.6669 8.24623 10.6472 8.2796 10.6723 8.26944C10.713 8.25312 10.8423 8.10262 10.8156 8.10262C10.8096 8.10262 10.7647 8.14433 10.7158 8.19528ZM16.8045 8.6466C16.8045 8.88759 16.8092 8.98623 16.8151 8.86565C16.8207 8.74524 16.8207 8.54796 16.8151 8.42756C16.8092 8.30698 16.8045 8.40562 16.8045 8.6466ZM19.6406 8.72258C19.6406 8.73509 19.6746 8.77698 19.7163 8.81542C19.7875 8.88124 19.8183 8.87979 19.7688 8.81288C19.7315 8.76229 19.6406 8.6981 19.6406 8.72258ZM19.8526 8.94507C19.8526 8.98315 19.9415 9.05151 19.9631 9.03011C19.973 9.02014 19.9601 8.99112 19.9342 8.96538C19.8815 8.91279 19.8526 8.90572 19.8526 8.94507ZM19.9661 9.10572C19.9917 9.13655 19.9801 9.14598 19.913 9.14834C19.8659 9.14997 19.775 9.19167 19.7112 9.24099C19.5605 9.35722 19.1958 9.58352 19.1591 9.58352C19.1434 9.58352 19.126 9.59368 19.1205 9.60619C19.1149 9.61852 19.0558 9.66457 18.9891 9.70846C18.6264 9.9469 18.1578 10.2446 18.0651 10.2958C18.0067 10.3279 17.9522 10.3616 17.9438 10.371C17.9296 10.3868 17.7357 10.5132 17.1734 10.8733C17.0388 10.9592 16.913 11.0436 16.8938 11.0606C16.8676 11.0838 16.8538 11.0097 16.8391 10.7681C16.8281 10.5902 16.814 10.4243 16.8074 10.3995C16.8007 10.3745 16.8014 11.1823 16.8089 12.1943C16.8236 14.1648 16.8231 14.1595 16.9696 14.0592C17.0138 14.0288 17.125 13.9566 17.2166 13.8986C17.3084 13.8407 17.4651 13.7404 17.5651 13.6755C17.6651 13.6108 17.7606 13.551 17.7773 13.5426C17.7938 13.5341 17.9098 13.4605 18.0347 13.3789C18.1598 13.2973 18.3301 13.187 18.4136 13.1341C18.4968 13.0811 18.6468 12.9849 18.7468 12.9201C18.8468 12.8552 18.9422 12.7954 18.9589 12.787C18.9755 12.7787 19.0845 12.7094 19.2013 12.6333C19.7548 12.2715 19.8732 12.1957 19.9435 12.1582C19.9851 12.1361 20.0397 12.1002 20.0648 12.0786C20.0897 12.057 20.1239 12.0342 20.1406 12.0278C20.1571 12.0215 20.2696 11.9517 20.3905 11.8728C20.5112 11.7937 20.709 11.6646 20.8297 11.5856C20.9506 11.5067 21.0632 11.4365 21.0797 11.4294C21.0964 11.4225 21.185 11.3669 21.2768 11.3056C21.5747 11.1067 21.7743 10.9812 21.8894 10.9206C21.9998 10.8626 22.017 10.8135 21.9176 10.8401C21.8901 10.8476 21.9085 10.8323 21.9585 10.8064C22.0316 10.7685 22.0356 10.762 21.9789 10.7736C21.9245 10.7846 21.9123 10.777 21.9261 10.7415C21.9381 10.7101 21.9301 10.7001 21.902 10.711C21.8778 10.7203 21.8436 10.6965 21.8214 10.655C21.8001 10.6153 21.7687 10.5913 21.7518 10.6019C21.7331 10.6133 21.7285 10.6009 21.7402 10.5707C21.7509 10.5429 21.7463 10.5186 21.7302 10.5166C21.7142 10.5145 21.6883 10.511 21.6731 10.509C21.6578 10.5068 21.634 10.4929 21.6202 10.4776C21.6051 10.4613 21.6135 10.4601 21.6404 10.4746C21.678 10.4949 21.6791 10.4918 21.6464 10.4568C21.6247 10.4336 21.5905 10.414 21.5705 10.4131C21.5506 10.4124 21.5376 10.3955 21.5418 10.3754C21.546 10.3554 21.5298 10.3389 21.5058 10.3389C21.4817 10.3389 21.4524 10.3233 21.4404 10.3041C21.4262 10.2811 21.4322 10.2775 21.4586 10.2936C21.4829 10.3086 21.4907 10.3063 21.4789 10.2871C21.4684 10.2702 21.4188 10.2392 21.3686 10.2185C21.3186 10.1979 21.285 10.1688 21.294 10.1542C21.3031 10.1395 21.298 10.1275 21.2826 10.1275C21.2671 10.1275 21.1873 10.0628 21.1052 9.98389C21.023 9.90501 20.8894 9.78588 20.8085 9.71952C20.6051 9.5527 20.3978 9.36992 20.32 9.28887C20.2842 9.25133 20.2407 9.22087 20.2237 9.22087C20.2064 9.22087 20.1842 9.19947 20.1742 9.17354C20.1642 9.14761 20.142 9.13492 20.1248 9.14562C20.1077 9.15613 20.0973 9.14852 20.1019 9.12857C20.1064 9.10863 20.0704 9.08632 20.0217 9.07925C19.9515 9.06891 19.9401 9.07435 19.9661 9.10572ZM16.8034 9.49286C16.8034 9.65061 16.8085 9.71534 16.8149 9.63629C16.8211 9.55741 16.8211 9.42812 16.8149 9.34925C16.8085 9.27037 16.8034 9.33492 16.8034 9.49286ZM16.8007 10.2182C16.8007 10.2929 16.8067 10.3235 16.814 10.2862C16.8211 10.2486 16.8211 10.1875 16.814 10.1502C16.8067 10.1126 16.8007 10.1433 16.8007 10.2182ZM10.5567 10.189C10.5202 10.2229 10.4903 10.2593 10.4903 10.2698C10.4903 10.2804 10.5245 10.2572 10.5662 10.2182C10.6372 10.1516 10.6549 10.1275 10.6325 10.1275C10.6272 10.1275 10.5932 10.1552 10.5567 10.189ZM15.094 11.4798C15.0929 11.725 15.0819 11.9885 15.0691 12.0652C15.0564 12.1419 15.0568 12.2334 15.0697 12.2686C15.0906 12.3248 15.0868 12.3285 15.0388 12.2985C14.9891 12.2677 14.861 12.3261 14.7624 12.4242C14.7541 12.4325 14.6996 12.4655 14.6414 12.4974C14.583 12.5295 14.4421 12.6178 14.3281 12.694C14.2142 12.77 14.0987 12.8458 14.0716 12.8625C13.8982 12.9687 13.5935 13.1649 13.5808 13.1785C13.5724 13.1876 13.5179 13.2211 13.4597 13.253C13.4014 13.2851 13.3468 13.319 13.3385 13.3287C13.3301 13.3383 13.2756 13.372 13.2172 13.4039C13.1589 13.4356 13.0616 13.5002 13.0009 13.5473C12.9402 13.5945 12.8816 13.6331 12.8711 13.6331C12.8513 13.6331 12.4268 13.9042 12.3992 13.9345C12.3908 13.9435 12.333 13.9778 12.2704 14.0104C12.2079 14.0433 12.1568 14.0788 12.1568 14.0897C12.1568 14.1007 12.133 14.1176 12.1037 14.1274C12.0401 14.1486 11.9669 14.1945 11.8192 14.3055C11.7585 14.3512 11.7 14.3887 11.6894 14.3887C11.6696 14.3887 11.2451 14.6598 11.2175 14.6899C11.2091 14.6991 11.1513 14.7332 11.0888 14.766C11.0263 14.7987 10.9752 14.8344 10.9752 14.8453C10.9752 14.8561 10.9514 14.8732 10.9221 14.8828C10.8585 14.9042 10.7852 14.9501 10.6376 15.0611C10.5769 15.1067 10.5167 15.1441 10.504 15.1441C10.4914 15.1441 10.4364 15.1782 10.3816 15.2197C10.3271 15.2612 10.2678 15.2953 10.25 15.2953C10.2322 15.2953 10.2177 15.3073 10.2177 15.3218C10.2177 15.3365 10.1768 15.3653 10.1268 15.386C10.0768 15.4067 10.0357 15.432 10.0355 15.4426C10.0353 15.4529 9.98078 15.4875 9.91443 15.5193C9.84789 15.551 9.79354 15.5867 9.79354 15.5989C9.79354 15.6108 9.76972 15.6286 9.74045 15.6384C9.689 15.6556 9.58175 15.718 9.55121 15.7486C9.51467 15.7851 9.3396 15.8997 9.32033 15.8997C9.30888 15.8997 9.25471 15.9338 9.19999 15.9753C9.14545 16.0168 9.08619 16.0507 9.06837 16.0507C9.05055 16.0507 9.03601 16.0627 9.03601 16.0774C9.03601 16.0919 8.99511 16.1207 8.94511 16.1414C8.89512 16.1621 8.85422 16.1889 8.85422 16.2011C8.85422 16.213 8.79968 16.2475 8.73315 16.2774C8.66643 16.3075 8.61189 16.3436 8.61189 16.3575C8.61189 16.3717 8.59807 16.3833 8.58135 16.3833C8.53263 16.3833 8.30902 16.5545 8.33011 16.5757C8.39592 16.6413 8.28794 16.5784 8.20995 16.5055C8.15723 16.4565 8.10687 16.4235 8.09797 16.4326C8.08906 16.4415 8.11996 16.4817 8.16668 16.5218C8.21358 16.5621 8.24431 16.6069 8.23522 16.6216C8.22613 16.6362 8.24722 16.6558 8.28194 16.6649C8.31684 16.674 8.33738 16.6941 8.32775 16.7097C8.31811 16.7251 8.3372 16.7621 8.37029 16.7918C8.40319 16.8216 8.4301 16.8631 8.4301 16.8839C8.4301 16.9048 8.47209 16.957 8.52336 17.0002C8.57462 17.0431 8.60607 17.0783 8.59335 17.0783C8.58062 17.0783 8.60007 17.1061 8.63643 17.14C8.67297 17.1739 8.70279 17.2214 8.70279 17.2457C8.70279 17.27 8.72315 17.2899 8.74823 17.2899C8.77314 17.2899 8.79368 17.3102 8.79368 17.3353C8.79368 17.3601 8.80732 17.3806 8.82404 17.3806C8.84059 17.3806 8.85422 17.4002 8.85422 17.4243C8.85422 17.4484 8.87822 17.4821 8.9073 17.499C8.93639 17.5159 8.95111 17.5302 8.93984 17.5307C8.92875 17.5313 8.95602 17.5704 9.00056 17.6179C9.11364 17.7383 9.2158 17.864 9.20035 17.864C9.19326 17.864 9.21489 17.8912 9.24816 17.9246C9.28143 17.9578 9.3087 17.9993 9.3087 18.017C9.3087 18.0346 9.32233 18.0406 9.33906 18.0303C9.35578 18.0199 9.36942 18.0328 9.36942 18.0588C9.36942 18.0847 9.38305 18.1059 9.39959 18.1059C9.41632 18.1059 9.42995 18.1271 9.42995 18.153C9.42995 18.1811 9.44413 18.1913 9.4654 18.1782C9.4894 18.1634 9.49449 18.173 9.48085 18.2082C9.46904 18.239 9.47304 18.2526 9.49085 18.2415C9.5074 18.2314 9.52085 18.2452 9.52085 18.272C9.52085 18.3017 9.53485 18.3124 9.5563 18.299C9.58011 18.2845 9.58538 18.2937 9.57248 18.3271C9.56193 18.3547 9.56303 18.3757 9.57502 18.3739C9.62629 18.3663 9.67192 18.3795 9.66628 18.4006C9.65465 18.4443 9.70737 18.5599 9.73191 18.5447C9.74572 18.5362 9.76463 18.5496 9.77427 18.5744C9.7919 18.6201 9.88443 18.6388 9.88443 18.5967C9.88443 18.5842 9.9257 18.5558 9.97605 18.5335C10.0264 18.5112 10.0842 18.4773 10.1048 18.458C10.1253 18.4388 10.1931 18.3962 10.2557 18.3634C10.318 18.3306 10.3693 18.2963 10.3693 18.2872C10.3693 18.2782 10.4204 18.2442 10.4829 18.212C10.5452 18.1797 10.6461 18.1155 10.7069 18.0691C10.7676 18.0228 10.8261 17.985 10.8368 17.985C10.855 17.985 11.0323 17.868 11.0661 17.8335C11.0744 17.825 11.1324 17.7915 11.1948 17.7587C11.2573 17.726 11.3084 17.6903 11.3084 17.6794C11.3084 17.6685 11.3324 17.6515 11.3615 17.6419C11.4169 17.6232 11.5249 17.5592 11.5509 17.5293C11.5593 17.5198 11.6136 17.4858 11.672 17.4538C11.7303 17.4217 11.8278 17.3583 11.8885 17.3126C11.9492 17.2669 12.0087 17.2294 12.0205 17.2294C12.0323 17.2294 12.0917 17.1906 12.1525 17.1429C12.2132 17.0954 12.3106 17.0323 12.369 17.0027C12.4272 16.9731 12.4817 16.9407 12.4901 16.9305C12.5146 16.9006 12.6222 16.8362 12.6795 16.817C12.7086 16.8072 12.7326 16.7904 12.7326 16.7795C12.7326 16.7686 12.7836 16.7329 12.8462 16.7001C12.9085 16.6674 12.9665 16.6337 12.9749 16.6254C13.0087 16.5909 13.186 16.474 13.2041 16.474C13.2149 16.474 13.2734 16.435 13.3341 16.3875C13.3948 16.3398 13.4923 16.2767 13.5506 16.2471C13.6088 16.2176 13.6633 16.1842 13.6717 16.1728C13.6801 16.1613 13.7342 16.1258 13.792 16.0939C13.8499 16.0618 13.9113 16.0246 13.9284 16.0112C13.9926 15.9612 14.3749 15.7184 14.3898 15.7184C14.3983 15.7184 14.455 15.6794 14.5158 15.6319C14.5765 15.5842 14.6726 15.5216 14.7294 15.4926C14.9561 15.3769 15.0559 15.2616 15.0779 15.0901C15.1024 14.8968 15.1369 11.0341 15.114 11.0341C15.104 11.0341 15.0949 11.2347 15.094 11.4798Z" fill="#FC8C1C"/>
<path fill-rule="evenodd" clip-rule="evenodd" d="M8.13453 0.476938C8.11362 0.485279 8.10417 0.504498 8.11363 0.51973C8.12308 0.534961 8.11544 0.54729 8.0969 0.54729C8.07818 0.54729 8.07072 0.559802 8.08017 0.575033C8.08963 0.590265 8.08163 0.641218 8.06236 0.688363C8.04309 0.735508 8.02182 0.835238 8.01509 0.909945C8.00837 0.984833 7.98982 1.059 7.97401 1.07477C7.95819 1.09055 7.94528 1.17595 7.94528 1.26462C7.94528 1.37995 7.93238 1.43054 7.89984 1.44305C7.8702 1.45447 7.85439 1.50144 7.85439 1.57814C7.85439 1.64287 7.84294 1.69582 7.82912 1.69582C7.81512 1.69582 7.80185 1.74496 7.79949 1.80498C7.79731 1.86518 7.78185 1.93082 7.76513 1.95076C7.7484 1.97089 7.72913 2.04741 7.72241 2.12103C7.7155 2.19465 7.69569 2.29093 7.67805 2.33481C7.6606 2.37888 7.65442 2.42294 7.66442 2.43291C7.68405 2.4525 7.58498 2.78016 7.54516 2.82748C7.53207 2.84326 7.52117 2.90527 7.52117 2.96511C7.52117 3.02495 7.50644 3.08841 7.48862 3.10636C7.47081 3.12413 7.45372 3.20845 7.45081 3.29367C7.4479 3.3789 7.43681 3.44852 7.42627 3.44852C7.41554 3.44852 7.39755 3.52341 7.3861 3.6148C7.37464 3.70619 7.3541 3.78108 7.34028 3.78108C7.32647 3.78108 7.3072 3.84563 7.29756 3.92451C7.28084 4.05996 7.2612 4.17021 7.24739 4.20412C7.24412 4.21246 7.24302 4.23005 7.24539 4.2431C7.24757 4.25634 7.23594 4.29188 7.21957 4.32252C7.20321 4.35299 7.18376 4.44129 7.17667 4.51872C7.1694 4.59596 7.15122 4.67593 7.13613 4.69624C7.12122 4.71637 7.10505 4.77965 7.10014 4.83659C7.09523 4.89352 7.07087 4.97113 7.04614 5.00903C7.02124 5.04692 7.0107 5.09353 7.02251 5.11275C7.03433 5.13197 7.02996 5.15645 7.01251 5.16715C6.99524 5.17784 6.96597 5.28174 6.94779 5.39797C6.92961 5.51421 6.90707 5.65691 6.89762 5.71511C6.88835 5.77332 6.86908 5.84821 6.8549 5.88139C6.82745 5.94486 6.80054 6.05746 6.77346 6.22138C6.76437 6.27542 6.74528 6.31966 6.7311 6.31966C6.71674 6.31966 6.71292 6.33997 6.72237 6.36499C6.73201 6.38984 6.72819 6.41033 6.71383 6.41033C6.69947 6.41033 6.6862 6.48104 6.68456 6.56753C6.68292 6.65602 6.66638 6.72964 6.64693 6.73617C6.62657 6.74288 6.61221 6.81487 6.61221 6.90898C6.61221 6.99764 6.59948 7.07471 6.58385 7.08015C6.56821 7.08577 6.54985 7.12421 6.54313 7.16573C6.53622 7.20744 6.51586 7.27743 6.4975 7.32167C6.47932 7.36574 6.44932 7.51533 6.43114 7.65405C6.41278 7.79276 6.38951 7.92658 6.37915 7.95161C6.35752 8.00474 6.3457 8.05913 6.33334 8.16303C6.32843 8.20474 6.30734 8.2566 6.28643 8.27854C6.26571 8.30048 6.24862 8.34944 6.24862 8.38715C6.24862 8.42505 6.22172 8.53621 6.18881 8.6343C6.15591 8.73258 6.12864 8.8887 6.1281 8.98154C6.12773 9.07438 6.11791 9.15979 6.10628 9.17139C6.09483 9.18282 6.08228 9.2131 6.07847 9.23849C6.07283 9.27711 6.02556 9.42833 5.95194 9.64393C5.93376 9.69742 5.91722 9.81039 5.91231 9.91592C5.91031 9.95745 5.89686 10.006 5.88249 10.0238C5.86795 10.0418 5.85195 10.1098 5.84668 10.1752C5.84141 10.2407 5.82541 10.3132 5.81087 10.3364C5.79651 10.3596 5.77942 10.4269 5.77287 10.4858C5.76633 10.5448 5.74633 10.6108 5.72852 10.6322C5.71052 10.6537 5.70343 10.6715 5.71252 10.6715C5.72179 10.6715 5.71543 10.7156 5.69852 10.7696C5.68161 10.8236 5.66144 10.9087 5.65344 10.9586C5.64544 11.0084 5.63326 11.0764 5.62635 11.1096C5.58817 11.2931 5.56272 11.4572 5.57236 11.4572C5.57854 11.4572 5.56091 11.4917 5.53327 11.5337C5.50564 11.5758 5.49037 11.6177 5.49946 11.6266C5.50855 11.6356 5.50237 11.6862 5.48564 11.739C5.46892 11.7918 5.43711 11.9098 5.41456 12.0012C5.3922 12.0926 5.35893 12.2219 5.34076 12.2882C5.28985 12.4739 5.26986 12.8172 5.30967 12.8172C5.32821 12.8172 5.33548 12.8298 5.32585 12.8453C5.28404 12.9125 5.36748 12.898 5.4511 12.8233C5.62708 12.6665 5.7038 12.6055 5.72616 12.6054C5.73852 12.6052 5.80287 12.5441 5.86886 12.4694C5.93503 12.3947 5.99721 12.3336 6.00702 12.3336C6.01684 12.3336 6.09047 12.2726 6.17082 12.1981C6.25099 12.1234 6.3577 12.0316 6.40787 11.9941C6.45805 11.9564 6.56403 11.8645 6.64329 11.7896C6.72274 11.7149 6.85999 11.5925 6.94852 11.5176C7.03706 11.4429 7.18085 11.3156 7.26793 11.2347C7.35519 11.1538 7.4579 11.0661 7.49644 11.0394C7.53498 11.0128 7.6446 10.9156 7.74004 10.8236C7.83548 10.7317 7.95765 10.6224 8.01146 10.5809C8.06509 10.5393 8.12981 10.4815 8.15526 10.4523C8.18053 10.4233 8.2127 10.3995 8.2267 10.3995C8.2407 10.3995 8.32323 10.3281 8.41013 10.2409C8.49684 10.1535 8.60065 10.0617 8.64064 10.0369C8.73699 9.97667 8.91496 9.79752 8.91496 9.76053C8.91496 9.74421 8.92605 9.73786 8.93951 9.7462C8.95314 9.75454 9.02295 9.70776 9.09476 9.6423C9.16675 9.57666 9.21365 9.52262 9.19892 9.52208C9.18438 9.52154 9.19965 9.5054 9.2331 9.48618C9.26637 9.46696 9.29473 9.45716 9.29618 9.46442C9.29745 9.47167 9.34854 9.42489 9.4098 9.36015C9.47088 9.29542 9.52087 9.25245 9.52087 9.26423C9.52087 9.2762 9.58868 9.21346 9.67158 9.12497C9.75466 9.03649 9.83465 8.96395 9.84974 8.96395C9.87392 8.96395 9.94499 8.90176 10.2057 8.6528C10.2457 8.61472 10.2784 8.59187 10.2784 8.60203C10.2784 8.61236 10.3371 8.56195 10.4089 8.49015C10.6507 8.24826 10.9145 8.01199 10.9427 8.01199C10.9581 8.01199 11.0541 7.93075 11.1561 7.83157C11.2581 7.73238 11.3817 7.62739 11.431 7.59838C11.4802 7.56937 11.5206 7.52821 11.5206 7.50681C11.5206 7.48541 11.5377 7.46801 11.5588 7.46801C11.5797 7.46801 11.6138 7.44081 11.6347 7.40763C11.6555 7.37426 11.692 7.34706 11.7158 7.34706C11.7395 7.34706 11.7675 7.31986 11.7782 7.28668C11.7887 7.2535 11.8104 7.2263 11.8262 7.2263C11.842 7.2263 11.9013 7.17861 11.958 7.1204C12.0145 7.06219 12.0685 7.01469 12.0778 7.01469C12.087 7.01469 12.1545 6.95685 12.2278 6.88631C12.3008 6.81559 12.4259 6.70335 12.5054 6.63698C12.743 6.43843 12.8878 6.31023 12.9924 6.20633C13.0467 6.1523 13.0996 6.10805 13.11 6.10805C13.1203 6.10805 13.1591 6.07977 13.1958 6.04531C13.2327 6.01086 13.3354 5.91911 13.4241 5.84132C13.513 5.76371 13.6465 5.64222 13.7208 5.57169C13.7952 5.50097 13.869 5.44312 13.885 5.44312C13.9011 5.44312 13.9142 5.42971 13.9142 5.41321C13.9142 5.39671 13.9617 5.35264 14.0199 5.31511C14.078 5.27739 14.1257 5.23206 14.1258 5.21411C14.126 5.19616 14.1598 5.16352 14.2009 5.14158C14.242 5.11964 14.2685 5.09008 14.2598 5.07594C14.2511 5.06179 14.2642 5.05037 14.2889 5.05037C14.3138 5.05037 14.3554 5.02897 14.3816 5.00286C14.4078 4.97675 14.4293 4.96315 14.4293 4.97258C14.4293 4.98201 14.4543 4.96605 14.4851 4.93704C14.5158 4.90785 14.5354 4.87394 14.5287 4.86143C14.522 4.84892 14.5298 4.83876 14.5461 4.83876C14.5623 4.83876 14.6219 4.79452 14.6787 4.74048C14.8121 4.61337 15.3357 4.15534 15.5318 3.99432C15.5633 3.96839 15.6485 3.88752 15.7212 3.81444C15.7938 3.74137 15.8532 3.69096 15.8532 3.7022C15.8532 3.71363 15.883 3.69513 15.9196 3.66122C16.0045 3.58235 16.0232 3.5838 16.1081 3.67518C16.1468 3.71689 16.1892 3.7508 16.2023 3.7508C16.2154 3.7508 16.2819 3.80465 16.3502 3.87048C16.6282 4.13811 16.7355 4.2344 16.7558 4.2344C16.7962 4.2344 16.9431 4.37638 16.9233 4.39614C16.9125 4.40684 16.9273 4.41573 16.956 4.41573C16.9847 4.41573 16.9998 4.42932 16.9894 4.44582C16.9792 4.46251 16.9847 4.47611 17.0018 4.47611C17.0189 4.47611 17.08 4.52035 17.1372 4.57439C17.3217 4.74792 17.5672 4.95681 17.6966 5.05037C17.766 5.10042 17.8228 5.15481 17.8228 5.17132C17.8228 5.18782 17.844 5.20142 17.87 5.20142C17.8958 5.20142 17.9087 5.21502 17.8984 5.2317C17.8882 5.2482 17.8926 5.2618 17.9084 5.2618C17.9242 5.2618 18.0145 5.33669 18.1093 5.42807C18.2038 5.51946 18.3009 5.59435 18.3247 5.59435C18.3485 5.59435 18.3647 5.61122 18.3605 5.63207C18.3563 5.65292 18.37 5.66652 18.3909 5.66235C18.4116 5.65818 18.4287 5.6774 18.4287 5.70514C18.4287 5.73289 18.4365 5.74776 18.4461 5.73815C18.4612 5.72291 18.5992 5.83624 18.8048 6.03244C18.8395 6.0658 18.8782 6.08956 18.8908 6.08539C18.9031 6.08122 18.9135 6.09246 18.9135 6.11023C18.9135 6.15284 18.9908 6.229 19.0342 6.229C19.0531 6.229 19.0588 6.24459 19.0469 6.26381C19.0346 6.28358 19.0384 6.29065 19.0558 6.27977C19.0728 6.26943 19.1702 6.34196 19.2727 6.44097C19.3751 6.53997 19.4589 6.61341 19.4589 6.60398C19.4589 6.59455 19.4951 6.62991 19.5394 6.6825C19.5838 6.73508 19.6519 6.7902 19.691 6.80507C19.7299 6.81976 19.7617 6.85494 19.7617 6.88304C19.7617 6.91115 19.7701 6.92584 19.7801 6.91568C19.7903 6.90571 19.8181 6.91369 19.8421 6.93345C19.8999 6.98096 20.2219 7.28196 20.4191 7.47254C20.5058 7.55631 20.5911 7.61579 20.6087 7.60491C20.6265 7.59403 20.6536 7.61651 20.6691 7.65496C20.6845 7.6934 20.6982 7.71425 20.6991 7.70119C20.7002 7.68814 20.7287 7.69213 20.7625 7.71026C20.7963 7.72821 20.8181 7.75251 20.811 7.76411C20.8041 7.7759 20.8174 7.80292 20.8405 7.82431C20.8638 7.84571 20.8829 7.85532 20.8829 7.84571C20.8829 7.8361 20.9019 7.84589 20.9252 7.86729C20.9483 7.88868 20.9599 7.9186 20.9507 7.93347C20.9416 7.94852 20.9494 7.95143 20.9681 7.93982C20.987 7.92822 21.0319 7.95288 21.0683 7.99458C21.1046 8.03629 21.1483 8.06185 21.1652 8.05133C21.1837 8.03991 21.1886 8.05188 21.1774 8.08107C21.1635 8.11698 21.1715 8.12477 21.2075 8.11117C21.2399 8.09866 21.249 8.10428 21.2346 8.12731C21.2201 8.15107 21.2299 8.15596 21.265 8.14254C21.2983 8.12967 21.3097 8.13438 21.2968 8.15523C21.2844 8.175 21.2975 8.18407 21.3297 8.1779C21.3588 8.17228 21.3921 8.16666 21.4033 8.16539C21.4146 8.16412 21.4419 8.14599 21.4639 8.12532C21.486 8.10446 21.5551 8.06058 21.6177 8.02776C21.68 7.99494 21.7313 7.95904 21.7313 7.94816C21.7313 7.93728 21.7551 7.92042 21.7842 7.91062C21.848 7.88923 21.9211 7.84353 22.0687 7.73238C22.1296 7.68669 22.1878 7.64933 22.1983 7.64933C22.2227 7.64933 22.4608 7.4952 22.5135 7.44534C22.5355 7.42467 22.5653 7.40763 22.5795 7.40763C22.5939 7.40763 22.6241 7.39058 22.6468 7.36973C22.7071 7.3146 22.7991 7.2573 22.8598 7.23699C22.8889 7.2272 22.9129 7.20871 22.9129 7.19602C22.9129 7.18332 22.9367 7.16483 22.9658 7.15504C23.0296 7.13382 23.1027 7.08795 23.2503 6.97697C23.3112 6.93128 23.3712 6.89374 23.3839 6.89374C23.3967 6.89374 23.4518 6.85984 23.5063 6.81831C23.561 6.77661 23.6203 6.7427 23.6381 6.7427C23.6557 6.7427 23.6703 6.73 23.6703 6.71459C23.6703 6.699 23.6975 6.67778 23.7308 6.66726C23.7639 6.65675 23.8088 6.63191 23.8304 6.61232C23.8893 6.55883 23.9817 6.50135 24.0415 6.48141C24.0706 6.47161 24.0946 6.45167 24.0946 6.43698C24.0946 6.42229 24.1073 6.41033 24.1229 6.41033C24.1386 6.41033 24.2409 6.34904 24.3504 6.27433C24.46 6.19944 24.5583 6.13833 24.5692 6.13833C24.58 6.13833 24.6334 6.10424 24.6879 6.06272C24.7427 6.0212 24.8019 5.98711 24.8197 5.98711C24.8374 5.98711 24.8519 5.97514 24.8519 5.96063C24.8519 5.94594 24.8928 5.91711 24.9428 5.89644C24.9928 5.87577 25.0337 5.84857 25.0337 5.83588C25.0337 5.82319 25.0628 5.80524 25.0984 5.79599C25.1499 5.78257 25.1586 5.76516 25.141 5.7095C25.0953 5.56461 25.0877 5.47341 25.1211 5.47341C25.1397 5.47341 25.1548 5.44965 25.1544 5.42046C25.1541 5.37531 25.1497 5.37422 25.1246 5.41303C25.1084 5.43787 25.0933 5.44802 25.091 5.43569C25.0764 5.35754 25.0782 5.33379 25.1012 5.30278C25.1164 5.28211 25.1082 5.24965 25.0806 5.22209C25.0457 5.18745 25.0435 5.1724 25.0719 5.16098C25.1008 5.14919 25.101 5.1452 25.0726 5.14339C25.0522 5.14212 25.0435 5.12055 25.0532 5.0957C25.063 5.06996 25.0539 5.05037 25.0319 5.05037C25.0108 5.05037 25.0012 5.04257 25.0108 5.03296C25.0204 5.02335 25.015 4.9724 24.9988 4.91963C24.9826 4.86687 24.9655 4.79506 24.9608 4.76025C24.9561 4.72543 24.9424 4.68137 24.9306 4.66215C24.9186 4.64275 24.9261 4.62715 24.9472 4.62715C24.9768 4.62715 24.9772 4.61917 24.949 4.59089C24.929 4.57094 24.9126 4.51654 24.9126 4.47012C24.9126 4.42352 24.9001 4.38544 24.885 4.38544C24.8697 4.38544 24.861 4.35117 24.8657 4.3091C24.8703 4.26722 24.8623 4.22551 24.8479 4.21663C24.8336 4.20774 24.8217 4.16132 24.8217 4.11345C24.8217 4.06558 24.8081 4.01789 24.7914 4.00774C24.7747 3.99741 24.761 3.94301 24.761 3.88679C24.761 3.83058 24.7492 3.77727 24.7348 3.76839C24.7205 3.7595 24.711 3.72142 24.7139 3.68353C24.7168 3.64581 24.7078 3.58235 24.6938 3.54264C24.6799 3.50293 24.6607 3.42133 24.6512 3.36131C24.6418 3.30129 24.6254 3.23855 24.615 3.22187C24.6047 3.20537 24.5925 3.16856 24.5881 3.14009C24.5838 3.1118 24.545 2.95713 24.5021 2.79647C24.4592 2.63582 24.4307 2.48731 24.4387 2.46646C24.4467 2.44561 24.4347 2.39284 24.412 2.34932C24.3894 2.30562 24.3785 2.2699 24.3878 2.2699C24.3973 2.2699 24.3862 2.24687 24.3633 2.21876C24.3405 2.19066 24.3371 2.17688 24.356 2.18812C24.3783 2.20154 24.3753 2.16564 24.3469 2.08349C24.3231 2.01477 24.2975 1.89745 24.29 1.82257C24.2824 1.74786 24.2609 1.66826 24.2422 1.64595C24.2236 1.62347 24.2164 1.60516 24.2264 1.60516C24.2364 1.60516 24.2311 1.57016 24.2149 1.52737C24.1986 1.48457 24.1767 1.37922 24.1664 1.29309C24.156 1.20714 24.1349 1.12863 24.1195 1.11884C24.104 1.10886 24.0937 1.08855 24.0966 1.0735C24.0993 1.05827 24.0993 1.03923 24.0964 1.03089C24.0935 1.02255 24.0855 0.962531 24.0786 0.897253C24.0718 0.832157 24.054 0.770868 24.0391 0.761258C24.0244 0.751648 24.016 0.719008 24.0208 0.688546C24.0255 0.658264 24.0029 0.60713 23.971 0.575216C23.939 0.543302 23.923 0.51701 23.9355 0.516648C23.9479 0.516466 23.9377 0.503048 23.9128 0.48691C23.8661 0.456809 8.20979 0.446838 8.13453 0.476938ZM14.8935 6.41794C14.8632 6.45547 14.8028 6.50879 14.7596 6.53653C14.7163 6.56427 14.6278 6.63572 14.5627 6.69555C14.4976 6.75521 14.378 6.86165 14.2967 6.932C14.2155 7.00236 14.0982 7.11097 14.0362 7.17335C13.9742 7.23573 13.9101 7.28668 13.8939 7.28668C13.8775 7.28668 13.825 7.33346 13.7772 7.39058C13.7294 7.4477 13.6792 7.48777 13.6657 7.47943C13.6521 7.47109 13.6328 7.48541 13.6228 7.51134C13.6128 7.53745 13.5874 7.55867 13.5661 7.55867C13.5448 7.55867 13.5196 7.58859 13.5099 7.6254C13.5003 7.66203 13.4845 7.68415 13.4747 7.67436C13.465 7.66475 13.4052 7.70953 13.342 7.7739C13.2785 7.83846 13.2149 7.89104 13.2003 7.89104C13.1858 7.89104 13.1462 7.91788 13.1124 7.95052C12.8538 8.19966 12.6575 8.37917 12.5624 8.45352C12.5008 8.50157 12.4192 8.57138 12.3808 8.60892C12.3425 8.64627 12.2968 8.67692 12.2794 8.67692C12.2619 8.67692 12.2512 8.69323 12.2554 8.71318C12.2596 8.73331 12.247 8.75035 12.2276 8.75108C12.2081 8.7518 12.1659 8.78281 12.1336 8.8198C12.1014 8.85697 12.0661 8.87855 12.0552 8.86767C12.0445 8.85697 12.0356 8.87311 12.0356 8.90357C12.0356 8.93404 12.0274 8.95072 12.0174 8.94074C12.0074 8.93059 11.946 8.97502 11.8811 9.03902C11.8162 9.10321 11.7629 9.14873 11.7629 9.14002C11.7629 9.1315 11.696 9.1937 11.6142 9.27837C11.5324 9.36306 11.4513 9.43232 11.4339 9.43232C11.4166 9.43232 11.3884 9.45626 11.3715 9.48527C11.3546 9.51428 11.3402 9.52879 11.3397 9.51737C11.3392 9.50594 11.2563 9.57611 11.1554 9.67349C11.0543 9.77068 10.9521 9.8579 10.9281 9.86715C10.9039 9.87621 10.8843 9.89779 10.8843 9.91502C10.8843 9.93206 10.8672 9.94639 10.8465 9.94693C10.8256 9.94729 10.7418 10.0216 10.66 10.1121C10.5784 10.2024 10.5 10.2693 10.4858 10.2606C10.4716 10.2519 10.4602 10.2581 10.4602 10.2742C10.4602 10.2904 10.3786 10.3627 10.2789 10.4347C10.1795 10.5067 10.0901 10.5888 10.0806 10.6169C10.071 10.6452 10.0397 10.6759 10.011 10.6849C9.98244 10.694 9.87409 10.7796 9.77029 10.8753C9.42634 11.1923 9.38471 11.2275 9.3609 11.2211C9.34799 11.2177 9.32872 11.2389 9.31818 11.2681C9.29636 11.3286 9.18819 11.4416 9.18656 11.4055C9.18601 11.3925 9.15875 11.4137 9.12602 11.453C9.0933 11.4922 9.0664 11.5141 9.0664 11.5018C9.0664 11.4893 9.0304 11.515 8.98659 11.5589C8.9426 11.6026 8.89478 11.6385 8.88042 11.6385C8.86606 11.6385 8.8577 11.6549 8.86188 11.675C8.86606 11.6949 8.84897 11.7125 8.82407 11.7141C8.79898 11.7156 8.78189 11.7332 8.78607 11.7533C8.79025 11.7733 8.77953 11.7896 8.76226 11.7896C8.72917 11.7896 8.67464 11.836 8.43031 12.0724C8.34686 12.1531 8.27869 12.2112 8.27869 12.2012C8.27869 12.1912 8.23633 12.2271 8.1847 12.281C8.13326 12.3348 8.08545 12.3756 8.07872 12.3715C8.06672 12.364 7.94001 12.4764 7.70405 12.7038C7.63951 12.7662 7.57679 12.8172 7.5648 12.8172C7.5528 12.8172 7.50244 12.8647 7.45281 12.9225C7.40318 12.9805 7.35155 13.0211 7.3381 13.0128C7.32465 13.0046 7.26339 13.059 7.20194 13.1338C7.14049 13.2086 7.07905 13.263 7.0656 13.2547C7.05214 13.2464 7.01179 13.2804 6.97597 13.3305C6.94034 13.3805 6.89199 13.4215 6.86853 13.4215C6.84526 13.4215 6.79618 13.4618 6.75982 13.5111C6.72328 13.5602 6.68292 13.594 6.67002 13.586C6.65711 13.578 6.61021 13.6188 6.56603 13.6766C6.52186 13.7345 6.45932 13.7902 6.42733 13.8003C6.39515 13.8105 6.37679 13.8315 6.38624 13.8469C6.39588 13.8623 6.38388 13.8748 6.3597 13.8748C6.33552 13.8748 6.3068 13.9109 6.29552 13.9552C6.27516 14.0364 6.32643 14.2074 6.37151 14.2074C6.38497 14.2074 6.40369 14.2311 6.41314 14.2602C6.4226 14.2894 6.47114 14.3566 6.52131 14.4098C6.5713 14.4629 6.61221 14.5205 6.61221 14.5381C6.61221 14.5557 6.62584 14.57 6.64257 14.57C6.65911 14.57 6.67274 14.5846 6.67274 14.6023C6.67274 14.6201 6.68983 14.6527 6.71074 14.6747C6.73146 14.6968 6.78273 14.7581 6.82436 14.8108C6.86599 14.8638 6.9307 14.9434 6.96815 14.9878C7.0056 15.0322 7.03633 15.0798 7.03633 15.0932C7.03633 15.1068 7.07741 15.1523 7.1274 15.1942C7.1774 15.2362 7.21066 15.283 7.20139 15.2981C7.19194 15.3131 7.19649 15.3255 7.21121 15.3255C7.22612 15.3255 7.28193 15.3862 7.33537 15.4605C7.38882 15.5347 7.44954 15.613 7.47026 15.6343C7.49099 15.6557 7.54044 15.7206 7.58007 15.7788C7.6197 15.837 7.6806 15.9081 7.7155 15.9369C7.75022 15.9655 7.76786 15.9893 7.75441 15.9897C7.74113 15.99 7.76695 16.0245 7.81185 16.066C7.85675 16.1075 7.8853 16.1414 7.87512 16.1414C7.86475 16.1414 7.89584 16.1817 7.94383 16.2306C7.99182 16.2796 8.04 16.3474 8.05072 16.3811C8.06145 16.4149 8.08127 16.4393 8.0949 16.4355C8.10854 16.4317 8.16343 16.4671 8.21688 16.5142C8.27033 16.5612 8.32196 16.5918 8.33159 16.5822C8.34141 16.5724 8.33814 16.5646 8.3245 16.5646C8.31105 16.5646 8.35632 16.5238 8.4254 16.474C8.4943 16.4241 8.56447 16.3833 8.58138 16.3833C8.5981 16.3833 8.61192 16.3717 8.61192 16.3576C8.61192 16.3436 8.66645 16.3075 8.73317 16.2774C8.79971 16.2475 8.85424 16.2131 8.85424 16.2011C8.85424 16.1889 8.89515 16.1621 8.94514 16.1414C8.99513 16.1208 9.03603 16.0919 9.03603 16.0774C9.03603 16.0627 9.05058 16.0508 9.0684 16.0508C9.08621 16.0508 9.14547 16.0169 9.20001 15.9753C9.25473 15.9336 9.30891 15.8997 9.32036 15.8997C9.33963 15.8997 9.5147 15.7851 9.55124 15.7487C9.58178 15.718 9.68903 15.6557 9.74048 15.6384C9.76975 15.6286 9.79356 15.6109 9.79356 15.5989C9.79356 15.5867 9.84792 15.551 9.91445 15.5193C9.98081 15.4876 10.0353 15.4529 10.0355 15.4426C10.0357 15.4321 10.0768 15.4067 10.1268 15.386C10.1768 15.3653 10.2177 15.3365 10.2177 15.3218C10.2177 15.3073 10.2322 15.2954 10.25 15.2954C10.2679 15.2954 10.3271 15.2613 10.3817 15.2197C10.4364 15.1782 10.4915 15.1441 10.504 15.1441C10.5167 15.1441 10.5769 15.1068 10.6376 15.0611C10.7852 14.9501 10.8585 14.9042 10.9221 14.8828C10.9514 14.8732 10.9752 14.8562 10.9752 14.8453C10.9752 14.8344 11.0263 14.7987 11.0888 14.7661C11.1514 14.7332 11.2092 14.6992 11.2175 14.6899C11.2452 14.6598 11.6697 14.3887 11.6895 14.3887C11.7 14.3887 11.7585 14.3512 11.8193 14.3055C11.9669 14.1945 12.0401 14.1486 12.1038 14.1274C12.133 14.1176 12.1569 14.1008 12.1569 14.0897C12.1569 14.0788 12.2079 14.0433 12.2705 14.0105C12.333 13.9778 12.3908 13.9436 12.3992 13.9345C12.4268 13.9042 12.8513 13.6331 12.8711 13.6331C12.8817 13.6331 12.9402 13.5945 13.0009 13.5474C13.0616 13.5002 13.1589 13.4357 13.2172 13.4039C13.2756 13.372 13.3301 13.3383 13.3385 13.3287C13.3469 13.3191 13.4014 13.2852 13.4598 13.2531C13.5179 13.2212 13.5725 13.1876 13.5808 13.1785C13.5936 13.1649 13.8982 12.9687 14.0717 12.8625C14.0988 12.8458 14.2142 12.77 14.3282 12.694C14.4422 12.6179 14.583 12.5296 14.6414 12.4975C14.6996 12.4656 14.7541 12.4326 14.7625 12.4242C14.861 12.3261 14.9892 12.2677 15.0388 12.2986C15.0868 12.3285 15.0906 12.3249 15.0697 12.2683C15.0564 12.2329 15.0557 12.1345 15.0679 12.0496C15.0866 11.9203 15.1353 10.6331 15.1368 10.2332C15.1442 8.1614 15.1172 6.48503 15.075 6.42102C15.0164 6.33163 14.9641 6.3309 14.8935 6.41794ZM16.8325 6.43607C16.7545 6.56065 16.8156 11.1297 16.8945 11.0601C16.9134 11.0434 17.0389 10.9593 17.1734 10.8733C17.7357 10.5132 17.9296 10.3868 17.9438 10.3711C17.9522 10.3616 18.0067 10.3279 18.0651 10.2958C18.1578 10.2447 18.6265 9.94693 18.9891 9.70848C19.0558 9.6646 19.1149 9.61855 19.1206 9.60622C19.126 9.59371 19.1435 9.58355 19.1591 9.58355C19.1958 9.58355 19.5605 9.35725 19.7112 9.24102C19.775 9.1917 19.8659 9.15 19.913 9.14836C19.9833 9.14583 19.9924 9.13749 19.9637 9.10231C19.9346 9.06677 19.9404 9.06223 19.9961 9.07656C20.0562 9.09215 20.0601 9.08726 20.0308 9.0325C20.0043 8.98318 19.9924 8.97919 19.9717 9.01273C19.9504 9.04718 19.9361 9.04447 19.8917 8.99804C19.8501 8.95471 19.8468 8.93821 19.8775 8.92696C19.9055 8.91663 19.8965 8.89741 19.8472 8.86277C19.779 8.81472 19.7665 8.80947 19.7005 8.80149C19.6834 8.79949 19.6567 8.76431 19.641 8.72333C19.6254 8.68235 19.561 8.61635 19.4978 8.57646C19.4347 8.53657 19.3373 8.46132 19.2815 8.40909C19.2255 8.35687 19.1667 8.31426 19.1509 8.31426C19.1349 8.31426 19.1295 8.30211 19.1386 8.28742C19.1477 8.27255 19.0909 8.208 19.0122 8.14381C18.9337 8.07962 18.8335 7.98968 18.7897 7.94399C18.7459 7.8983 18.701 7.86094 18.6899 7.86094C18.679 7.86094 18.6248 7.8167 18.5697 7.76266C18.3958 7.59203 18.246 7.46801 18.2138 7.46801C18.1967 7.46801 18.1911 7.4544 18.2014 7.43772C18.2118 7.42122 18.2038 7.40763 18.184 7.40763C18.164 7.40763 18.1156 7.37281 18.0762 7.33038C18.0367 7.28813 18.0045 7.26311 18.0045 7.27489C18.0045 7.28686 17.9526 7.24334 17.8891 7.17824C17.7751 7.06129 17.6633 6.9621 17.3808 6.72765C17.3006 6.6611 17.1805 6.55575 17.1138 6.49337C16.9805 6.36898 16.8867 6.34976 16.8325 6.43607Z" fill="#FCBB04"/>
<path fill-rule="evenodd" clip-rule="evenodd" d="M25.736 8.21375C25.7413 8.25817 25.766 8.30006 25.7911 8.30677C25.8204 8.31456 25.8247 8.31003 25.8033 8.29389C25.7849 8.28029 25.7724 8.23841 25.7755 8.20105C25.7785 8.16352 25.7687 8.13306 25.7536 8.13306C25.7387 8.13306 25.7307 8.16932 25.736 8.21375ZM25.7936 8.36896C25.7922 8.39072 25.7776 8.40033 25.7611 8.39018C25.7444 8.37966 25.7387 8.39108 25.7482 8.41574C25.7591 8.44403 25.7398 8.46779 25.6947 8.48193C25.6562 8.4939 25.5762 8.54159 25.5173 8.58782C25.4584 8.63388 25.3595 8.69589 25.2977 8.72527C25.2357 8.75483 25.1852 8.78837 25.1852 8.79998C25.1852 8.81158 25.1612 8.82899 25.1321 8.83878C25.0805 8.85619 24.973 8.91857 24.9427 8.94903C24.9343 8.95737 24.8661 9.00379 24.7912 9.05202C24.7163 9.10025 24.618 9.16481 24.5727 9.19545C24.5276 9.2261 24.4776 9.25112 24.4616 9.25112C24.4458 9.25112 24.4282 9.26145 24.4226 9.27378C24.4089 9.30479 24.2531 9.41159 24.1275 9.47633C24.0708 9.5057 24.0094 9.54251 23.9912 9.55811C23.8676 9.66454 23.3696 9.96228 23.3345 9.95068C23.2987 9.93889 23.2993 9.94633 23.3369 9.9942C23.4002 10.0747 23.4353 10.0963 23.4689 10.0756C23.4847 10.0658 23.4891 10.072 23.4783 10.0892C23.4676 10.1066 23.4791 10.1376 23.504 10.1581C23.5287 10.1786 23.5491 10.1886 23.5491 10.1802C23.5491 10.1719 23.6083 10.2212 23.681 10.2899C23.8057 10.4078 23.9443 10.5284 24.3353 10.8589C24.4278 10.9371 24.5473 11.0424 24.6009 11.0932C24.6547 11.1438 24.7131 11.1853 24.7307 11.1853C24.7483 11.1853 24.7702 11.2046 24.7792 11.2279C24.7883 11.2513 24.8287 11.2789 24.8692 11.2889C24.9096 11.299 24.9427 11.3208 24.9427 11.3371C24.9427 11.41 25.1608 11.3306 25.2761 11.2156C25.2844 11.2073 25.3388 11.1743 25.3971 11.1424C25.4555 11.1103 25.51 11.0747 25.5184 11.0633C25.5268 11.0521 25.5813 11.0185 25.6397 10.989C25.6978 10.9594 25.7953 10.8963 25.856 10.8488C25.9167 10.8011 25.9752 10.7623 25.986 10.7623C26.0618 10.7623 26.251 10.5824 26.2314 10.5289C26.2239 10.5088 26.231 10.4841 26.2468 10.4744C26.2628 10.4646 26.2759 10.4731 26.2759 10.4936C26.2759 10.5139 26.2837 10.5228 26.2932 10.5132C26.3028 10.5037 26.291 10.4571 26.267 10.41C26.2428 10.3627 26.2276 10.2974 26.2327 10.2646C26.2379 10.2319 26.229 10.1895 26.213 10.1703C26.197 10.151 26.1925 10.113 26.203 10.0858C26.2134 10.0584 26.2048 10.0154 26.1838 9.99021C26.1627 9.96482 26.1467 9.9039 26.1481 9.85457C26.1494 9.80525 26.1401 9.765 26.1274 9.765C26.1147 9.765 26.1029 9.74795 26.1012 9.7271C26.0936 9.62773 26.0691 9.47324 26.0545 9.43244C26.0456 9.4076 26.0291 9.3329 26.018 9.26653C26.0069 9.20017 25.99 9.13326 25.9803 9.11802C25.9709 9.10261 25.9592 9.05492 25.9543 9.01195C25.9418 8.90206 25.7965 8.32091 25.7936 8.36896ZM21.7926 10.6036C21.7944 10.6452 21.8766 10.736 21.89 10.7112C21.8973 10.6977 21.8782 10.6629 21.8475 10.6337C21.8168 10.6047 21.792 10.5911 21.7926 10.6036ZM21.9231 10.7754C21.9322 10.7993 21.9304 10.8243 21.9187 10.8308C21.9071 10.8375 21.9135 10.8394 21.9326 10.835C22.018 10.8152 21.992 10.8667 21.8893 10.9208C21.7742 10.9813 21.5746 11.1068 21.2767 11.3057C21.1849 11.367 21.0963 11.4227 21.0796 11.4296C21.0631 11.4367 20.9505 11.5068 20.8296 11.5857C20.7089 11.6648 20.5111 11.7939 20.3904 11.8729C20.2695 11.9518 20.157 12.0216 20.1405 12.028C20.1237 12.0343 20.0896 12.0572 20.0647 12.0787C20.0396 12.1003 19.985 12.1362 19.9434 12.1583C19.873 12.1959 19.7547 12.2717 19.2011 12.6334C19.0844 12.7096 18.9754 12.7788 18.9588 12.7872C18.9421 12.7955 18.8466 12.8554 18.7467 12.9203C18.6467 12.985 18.4967 13.0813 18.4134 13.1342C18.33 13.1872 18.1597 13.2974 18.0346 13.379C17.9097 13.4606 17.7937 13.5342 17.7772 13.5428C17.7604 13.5511 17.665 13.6109 17.565 13.6757C17.465 13.7406 17.3083 13.8409 17.2165 13.8987C17.1249 13.9567 17.0136 14.0289 16.9695 14.0594C16.8384 14.1491 16.8251 14.096 16.8129 13.4345C16.8069 13.1034 16.8071 13.5667 16.8135 14.4643C16.8275 16.4589 16.8404 16.6322 16.968 16.5408C16.9964 16.5205 17.04 16.4948 17.0651 16.4835C17.09 16.4725 17.1173 16.4554 17.1256 16.446C17.134 16.4364 17.1954 16.3932 17.262 16.3501C17.3287 16.3067 17.4856 16.205 17.6105 16.124C17.7355 16.0429 17.8717 15.9582 17.9133 15.9361C17.955 15.9138 18.0095 15.8779 18.0346 15.8563C18.0597 15.8347 18.0937 15.8119 18.1104 15.8055C18.1271 15.7992 18.2362 15.7317 18.3527 15.6554C18.4694 15.5793 18.6672 15.4501 18.7921 15.3684C18.9172 15.2868 19.033 15.2142 19.0497 15.2074C19.0663 15.2005 19.155 15.1446 19.2466 15.0835C19.3382 15.0222 19.4882 14.9247 19.5798 14.8666C19.6716 14.8086 19.8489 14.6944 19.9738 14.6128C20.0988 14.5312 20.2146 14.4587 20.2314 14.4518C20.2479 14.4449 20.3366 14.3892 20.4282 14.3279C20.5199 14.2666 20.6767 14.1649 20.7767 14.1016C20.9447 13.9954 21.303 13.7649 21.5948 13.5758C21.6613 13.5326 21.7204 13.4871 21.726 13.4746C21.7315 13.4621 21.7497 13.4519 21.7664 13.4519C21.7829 13.4519 21.8738 13.4022 21.9684 13.3415C22.2178 13.181 22.6363 12.9112 22.7764 12.8204C22.843 12.777 22.9021 12.7315 22.9077 12.719C22.9131 12.7067 22.9308 12.6963 22.9468 12.6963C22.9795 12.6963 23.2867 12.5059 23.4782 12.3669C23.6049 12.2749 23.6343 12.1524 23.5296 12.1524C23.5062 12.1524 23.474 12.1184 23.4582 12.0769C23.4423 12.0354 23.4154 12.0013 23.3987 12.0013C23.3818 12.0013 23.3013 11.9368 23.2196 11.8577C23.0569 11.7005 22.6755 11.3563 22.5376 11.2423C22.4896 11.2027 22.3825 11.1048 22.2996 11.0249C22.2167 10.9449 22.1413 10.8871 22.132 10.8963C22.1227 10.9054 22.0962 10.8858 22.0729 10.8528C22.0496 10.8196 22.0102 10.7924 21.9851 10.7924C21.96 10.7924 21.948 10.7788 21.9584 10.7623C21.9686 10.7456 21.9611 10.732 21.9417 10.732C21.9222 10.732 21.9138 10.7516 21.9231 10.7754ZM15.0957 14.611C15.0957 15.2228 15.0519 15.3281 14.7292 15.4928C14.6725 15.5218 14.5764 15.5843 14.5156 15.632C14.4549 15.6795 14.3982 15.7185 14.3897 15.7185C14.3748 15.7185 13.9924 15.9613 13.9283 16.0114C13.9112 16.0248 13.8497 16.0619 13.7919 16.094C13.7341 16.126 13.6799 16.1615 13.6716 16.1729C13.6632 16.1843 13.6087 16.2177 13.5505 16.2473C13.4922 16.2768 13.3947 16.3399 13.334 16.3876C13.2733 16.4351 13.2147 16.4741 13.204 16.4741C13.1858 16.4741 13.0086 16.5911 12.9748 16.6255C12.9664 16.6339 12.9084 16.6676 12.8461 16.7002C12.7835 16.733 12.7324 16.7688 12.7324 16.7796C12.7324 16.7905 12.7085 16.8074 12.6794 16.8172C12.6221 16.8364 12.5145 16.9008 12.4899 16.9307C12.4816 16.9408 12.427 16.9733 12.3689 17.0029C12.3105 17.0324 12.2131 17.0955 12.1523 17.143C12.0916 17.1907 12.0322 17.2295 12.0204 17.2295C12.0086 17.2295 11.9491 17.267 11.8884 17.3127C11.8277 17.3584 11.7302 17.4219 11.6719 17.454C11.6135 17.4859 11.5592 17.52 11.5508 17.5294C11.5248 17.5593 11.4168 17.6234 11.3614 17.642C11.3323 17.6516 11.3083 17.6687 11.3083 17.6796C11.3083 17.6904 11.2572 17.7262 11.1947 17.7588C11.1323 17.7916 11.0743 17.8252 11.066 17.8337C11.0321 17.8681 10.8549 17.9851 10.8367 17.9851C10.826 17.9851 10.7675 18.023 10.7067 18.0692C10.646 18.1157 10.5451 18.1798 10.4828 18.2121C10.4202 18.2444 10.3692 18.2783 10.3692 18.2874C10.3692 18.2964 10.3179 18.3307 10.2555 18.3635C10.193 18.3964 10.1252 18.439 10.1046 18.4582C10.0841 18.4774 10.0263 18.5113 9.97594 18.5336C9.92558 18.5559 9.88432 18.5844 9.88432 18.5969C9.88432 18.6094 9.86305 18.6197 9.83705 18.6197C9.80906 18.6197 9.79869 18.6056 9.81142 18.5849C9.82433 18.5643 9.81978 18.5581 9.80069 18.5699C9.78288 18.5809 9.76142 18.5728 9.75288 18.5519C9.74452 18.5311 9.7367 18.5276 9.73561 18.5441C9.73452 18.5608 9.78797 18.6328 9.85432 18.7042C9.92086 18.7755 9.97521 18.8421 9.97521 18.8518C9.97521 18.8618 10.0477 18.9599 10.1365 19.0698C10.2252 19.1797 10.3104 19.2914 10.3259 19.3182C10.3561 19.3706 10.5355 19.5904 10.6947 19.7703C10.7489 19.8312 10.7933 19.8965 10.7933 19.9151C10.7933 19.9336 10.8205 19.9659 10.8538 19.9868C10.8873 20.0074 10.9145 20.0424 10.9145 20.0644C10.9145 20.0861 10.926 20.097 10.9402 20.0883C10.9543 20.0796 10.9842 20.1063 11.0063 20.1478C11.0812 20.2872 11.2188 20.2655 11.4186 20.0827C11.4385 20.0646 11.4968 20.0323 11.5481 20.0111C11.5995 19.9897 11.6417 19.9619 11.6417 19.9494C11.6417 19.9367 11.6655 19.9182 11.6946 19.9086C11.7437 19.8921 11.8202 19.8473 11.8975 19.7897C12.0015 19.7121 12.3516 19.4961 12.3732 19.4961C12.3874 19.4961 12.399 19.4841 12.399 19.4696C12.399 19.4549 12.4399 19.4261 12.4899 19.4054C12.5399 19.3848 12.5808 19.3581 12.5808 19.346C12.5808 19.3338 12.6354 19.2995 12.7021 19.2694C12.7688 19.2395 12.8233 19.2051 12.8233 19.1929C12.8233 19.1808 12.8472 19.1628 12.8762 19.153C12.9253 19.1365 13.0019 19.0917 13.0791 19.0341C13.1771 18.9612 13.5327 18.7407 13.5523 18.7407C13.5652 18.7407 13.5803 18.7304 13.5858 18.718C13.5998 18.6865 13.7565 18.5795 13.8837 18.5144C13.9421 18.4847 13.9966 18.4518 14.005 18.4417C14.0134 18.4315 14.0473 18.4067 14.0806 18.3866C14.1141 18.3663 14.2504 18.2805 14.3837 18.1958C14.5169 18.1111 14.6527 18.0257 14.6854 18.006C14.718 17.9862 14.7632 17.953 14.786 17.9322C14.8087 17.9115 14.8365 17.8943 14.848 17.8939C14.913 17.8924 15.0656 17.7117 15.0676 17.6335C15.0694 17.5579 15.073 17.5545 15.0957 17.6074C15.1108 17.6422 15.1225 16.9668 15.1232 16.0132C15.1241 15.1031 15.1181 14.3586 15.1101 14.3586C15.1023 14.3586 15.0957 14.4721 15.0957 14.611Z" fill="#FC7026"/>
<path fill-rule="evenodd" clip-rule="evenodd" d="M15.1402 8.51068C15.1402 9.40825 15.144 9.77109 15.1487 9.31705C15.1535 8.86282 15.1535 8.12845 15.1487 7.6851C15.144 7.24158 15.1402 7.61312 15.1402 8.51068ZM25.947 8.91867C25.947 8.94351 25.9586 8.9912 25.973 9.02438C25.9893 9.06246 25.999 9.06809 25.999 9.03962C25.999 9.01459 25.9873 8.96708 25.973 8.93372C25.9566 8.89564 25.947 8.89002 25.947 8.91867ZM26.0059 9.19066C26.0068 9.2155 26.0193 9.26319 26.0335 9.29637L26.0597 9.35694L26.0613 9.29637C26.0622 9.26319 26.0497 9.2155 26.0335 9.19066C26.0075 9.15041 26.0044 9.15041 26.0059 9.19066ZM22.8825 9.62313C22.8825 9.62838 22.9269 9.67263 22.981 9.72141L23.0794 9.81026L22.9905 9.71198C22.9076 9.62041 22.8825 9.59992 22.8825 9.62313ZM15.1375 10.6563C15.1375 10.8393 15.1425 10.9102 15.1485 10.8139C15.1545 10.7178 15.1545 10.5682 15.1484 10.4815C15.1422 10.3949 15.1373 10.4736 15.1375 10.6563ZM23.9336 10.5631C23.9805 10.6034 24.024 10.6308 24.0305 10.6244C24.0453 10.6097 23.9067 10.4926 23.8731 10.4911C23.8596 10.4906 23.8869 10.5231 23.9336 10.5631ZM24.0642 10.6507C24.0642 10.656 24.1085 10.7002 24.1627 10.749L24.261 10.8377L24.1721 10.7396C24.0892 10.648 24.0642 10.6273 24.0642 10.6507ZM26.3696 10.7597C26.368 10.7833 26.4 10.9329 26.4404 11.0921C26.4809 11.2514 26.5223 11.4206 26.5327 11.4683C26.5431 11.516 26.5585 11.5481 26.5671 11.5396C26.584 11.5227 26.4969 11.0728 26.4674 11.0255C26.4576 11.0096 26.4322 10.9336 26.4109 10.8567C26.3896 10.7798 26.3711 10.7361 26.3696 10.7597ZM24.4906 11.0523C24.531 11.0955 24.6186 11.1726 24.6853 11.2235C24.7595 11.2805 24.7361 11.2502 24.6246 11.145C24.4346 10.966 24.3647 10.9176 24.4906 11.0523ZM15.1389 11.6386C15.1389 11.9793 15.1433 12.1187 15.1487 11.9483C15.154 11.778 15.154 11.4991 15.1487 11.3289C15.1433 11.1584 15.1389 11.2979 15.1389 11.6386ZM24.9415 11.4346C25.0671 11.568 25.0944 11.592 25.0944 11.5693C25.0944 11.5644 25.0295 11.4999 24.9504 11.4257L24.8064 11.291L24.9415 11.4346ZM16.7698 11.5329C16.7701 11.5992 16.7763 11.623 16.7836 11.5853C16.7909 11.5477 16.7907 11.4933 16.783 11.4645C16.7754 11.4355 16.7696 11.4663 16.7698 11.5329ZM22.9583 11.5942C23.2606 11.8752 23.3428 11.945 23.3555 11.9323C23.3632 11.9249 23.2496 11.8203 23.1032 11.7C22.9569 11.5798 22.8916 11.5321 22.9583 11.5942ZM25.1271 11.5992C25.1307 11.6346 25.4609 11.9176 25.4781 11.9004C25.4861 11.8924 25.4289 11.8268 25.3507 11.7546C25.1967 11.6125 25.1233 11.5613 25.1271 11.5992ZM26.5654 11.631C26.5716 11.6602 26.6005 11.7927 26.6294 11.9256C26.6585 12.0587 26.6836 12.1742 26.6852 12.1826C26.687 12.1909 26.6992 12.2429 26.7123 12.2982C26.7643 12.5167 26.7879 12.7887 26.7529 12.7672C26.7403 12.7594 26.7221 12.7733 26.7125 12.7983C26.689 12.8595 26.5407 12.7938 26.3798 12.6509C26.1273 12.4268 25.9232 12.2509 25.8803 12.2206C25.851 12.2 25.7617 12.1224 25.6817 12.048C25.6018 11.9737 25.5294 11.9198 25.521 11.9282C25.5058 11.9434 25.6003 12.0319 25.8514 12.2375C25.9262 12.2986 26.0081 12.3717 26.0331 12.3996C26.174 12.5561 26.6281 12.9079 26.6892 12.9079C26.8399 12.9079 26.8598 12.6843 26.7483 12.2429C26.7083 12.0852 26.6598 11.8779 26.6405 11.7827C26.6211 11.6874 26.5938 11.6023 26.5798 11.5938C26.5658 11.5851 26.5592 11.6019 26.5654 11.631ZM16.7698 11.8955C16.7701 11.9619 16.7763 11.9856 16.7836 11.9479C16.7909 11.9104 16.7907 11.856 16.783 11.8272C16.7754 11.7981 16.7696 11.829 16.7698 11.8955ZM23.5793 12.1497C23.5793 12.1679 23.591 12.1826 23.6053 12.1826C23.6195 12.1826 23.6649 12.2132 23.7064 12.2506C23.7478 12.2879 23.8146 12.3458 23.8547 12.3789L23.9278 12.4395L23.8673 12.3681C23.7773 12.2622 23.5793 12.1122 23.5793 12.1497ZM15.1304 16.0207C15.1246 18.0733 15.1224 19.8578 15.1255 19.986C15.1315 20.2291 15.1091 20.3212 15.0622 20.2473C15.0431 20.2173 15.036 20.2244 15.0357 20.2739C15.0353 20.3205 14.9951 20.3666 14.9064 20.4217C14.6252 20.5969 14.4439 20.72 14.4343 20.7421C14.4287 20.755 14.411 20.7653 14.3948 20.7653C14.3788 20.7653 14.2879 20.8163 14.1929 20.8786C14.098 20.9408 14.0065 20.9987 13.9898 21.0072C13.9618 21.0214 13.8842 21.071 13.4293 21.3662C13.3377 21.4257 13.2581 21.4848 13.2526 21.4977C13.247 21.5104 13.2266 21.5213 13.2072 21.5216C13.1877 21.5222 13.0218 21.6232 12.8385 21.7461C12.6553 21.8691 12.5009 21.9579 12.4957 21.9434C12.4904 21.9291 12.4695 21.9236 12.4491 21.9312C12.4026 21.9492 12.2717 21.8239 12.1961 21.689C12.1783 21.6573 12.1383 21.6277 12.1072 21.6234C12.0586 21.6165 12.057 21.6205 12.0963 21.6513C12.1212 21.671 12.1781 21.7416 12.2226 21.8079C12.327 21.9641 12.4468 22.0981 12.4653 22.0794C12.4735 22.0714 12.48 22.0827 12.48 22.1042C12.48 22.1385 12.7296 22.476 13.187 23.0598C13.2619 23.1556 13.4517 23.4025 13.6086 23.6089C13.8931 23.9832 13.9305 24.0312 14.1583 24.3164C14.2983 24.4916 14.2792 24.4671 14.487 24.7395C14.9124 25.297 14.9404 25.3288 15.0091 25.3288C15.1631 25.3288 15.1571 25.6111 15.1487 18.7036C15.1429 13.7567 15.1385 13.1427 15.1304 16.0207ZM24.0036 12.5138C24.0036 12.53 24.0342 12.5592 24.0718 12.5788C24.1396 12.6143 24.1396 12.6141 24.0822 12.5496C24.018 12.4776 24.0036 12.4711 24.0036 12.5138ZM24.3759 12.8399C24.4628 12.9187 24.5385 12.9938 24.5441 13.0065C24.5495 13.019 24.5837 13.0437 24.6197 13.0609C24.6557 13.0783 24.5899 13.0036 24.4732 12.8952C24.3565 12.7867 24.2514 12.6975 24.2396 12.6972C24.228 12.6966 24.2892 12.761 24.3759 12.8399ZM24.8415 13.2598C24.9273 13.3405 25.0324 13.4337 25.0749 13.4669C25.1173 13.5003 25.1527 13.5443 25.1535 13.5652C25.1544 13.586 25.1753 13.6029 25.2004 13.6029C25.2253 13.6029 25.2458 13.6227 25.2458 13.6468C25.2458 13.6709 25.2694 13.7037 25.2982 13.7199C25.3445 13.7458 25.3411 13.7534 25.2678 13.7866C25.2224 13.8072 25.1853 13.8341 25.1853 13.8461C25.1853 13.858 25.1613 13.876 25.1322 13.8856C25.0807 13.903 24.9735 13.9654 24.9428 13.9958C24.9344 14.0042 24.8799 14.0372 24.8217 14.0691C24.7633 14.1012 24.7088 14.1351 24.7004 14.1447C24.6735 14.1755 24.4914 14.2981 24.4725 14.2981C24.4623 14.2981 24.4094 14.332 24.3547 14.3735C24.3001 14.4152 24.246 14.4491 24.2343 14.4491C24.2132 14.4491 24.0325 14.5694 24.0036 14.6026C23.9953 14.6122 23.9407 14.6461 23.8824 14.6782C23.824 14.7101 23.7695 14.7431 23.7611 14.7514C23.7387 14.7737 23.6313 14.8395 23.5793 14.8628C23.5544 14.8738 23.5271 14.8907 23.5188 14.9003C23.4917 14.9311 23.3097 15.0535 23.2908 15.0535C23.2806 15.0535 23.2277 15.0876 23.173 15.1291C23.1185 15.1706 23.0643 15.2047 23.0527 15.2047C23.0316 15.2047 22.8509 15.325 22.822 15.3581C22.8136 15.3676 22.7591 15.4017 22.7007 15.4336C22.6424 15.4657 22.5878 15.4985 22.5795 15.5068C22.5571 15.5293 22.4497 15.595 22.3977 15.6182C22.3728 15.6294 22.3455 15.6463 22.3371 15.6559C22.3101 15.6867 22.1281 15.8091 22.1092 15.8091C22.099 15.8091 22.0461 15.8432 21.9914 15.8847C21.9368 15.9262 21.8774 15.9601 21.8596 15.9601C21.8418 15.9601 21.8225 15.9707 21.817 15.9835C21.8021 16.0176 21.4689 16.2321 21.4305 16.2321C21.4125 16.2321 21.3978 16.2443 21.3978 16.259C21.3978 16.2737 21.374 16.2936 21.3449 16.3034C21.2911 16.3214 21.1833 16.3848 21.1555 16.4147C21.1195 16.4535 20.7003 16.7157 20.6743 16.7157C20.6585 16.7157 20.6408 16.7263 20.6354 16.7389C20.6238 16.7658 20.2913 16.9877 20.2629 16.9877C20.2525 16.9877 20.2274 17.0022 20.2074 17.02C20.1382 17.0811 19.5192 17.4713 19.4916 17.4713C19.4763 17.4713 19.4592 17.4817 19.4537 17.4945C19.4421 17.5212 19.1096 17.7433 19.0812 17.7433C19.0709 17.7433 19.0458 17.7576 19.0258 17.7754C18.9471 17.8445 18.3408 18.2267 18.3099 18.2267C18.2919 18.2267 18.2768 18.2371 18.2763 18.2494C18.2757 18.2619 18.1661 18.3401 18.0325 18.4233C17.8991 18.5063 17.6635 18.6559 17.5091 18.7557C17.3548 18.8554 17.151 18.9869 17.0563 19.048C16.9357 19.1256 16.8772 19.1482 16.8614 19.1234C16.8488 19.104 16.8287 18.2518 16.8163 17.2294C16.8041 16.2073 16.7894 15.2961 16.7838 15.2047C16.7779 15.1132 16.7743 17.333 16.7754 20.1374L16.7774 25.2365L16.845 25.3039L16.9128 25.3716L16.9961 25.3096C17.0417 25.2755 17.1204 25.1922 17.1706 25.1246C17.2421 25.0287 17.6425 24.5221 17.7858 24.3465C17.8153 24.3104 18.0719 23.9772 18.3912 23.5608C18.5184 23.3946 18.6984 23.1626 18.7907 23.0453C18.8833 22.928 18.9929 22.786 19.0345 22.7298C19.0763 22.6736 19.1856 22.5314 19.2776 22.4141C19.3698 22.2968 19.4719 22.1657 19.5048 22.1225C19.5379 22.0794 19.6466 21.9383 19.7466 21.8092C19.8466 21.6799 19.9573 21.5343 19.9928 21.4859C20.0282 21.4373 20.0967 21.3541 20.1453 21.3006C20.1938 21.2473 20.2738 21.1476 20.3232 21.079C20.3727 21.0103 20.4905 20.854 20.585 20.7314C20.6796 20.6088 20.8535 20.3793 20.9719 20.2213C21.0902 20.0636 21.2242 19.889 21.2697 19.8337C21.3742 19.7065 21.4767 19.5749 21.761 19.2034C21.8859 19.0402 22.0699 18.803 22.1701 18.6762C22.2702 18.5495 22.4068 18.3745 22.4735 18.2875C22.5402 18.2006 22.6107 18.1125 22.6302 18.0918C22.6498 18.0713 22.7044 18.0001 22.7514 17.9337C22.8603 17.7801 23.0592 17.5196 23.2912 17.2256C23.3913 17.0989 23.5455 16.9016 23.6337 16.7874C23.7218 16.6731 23.9096 16.4301 24.0511 16.2474C24.1925 16.0644 24.3552 15.8537 24.4127 15.7788C24.5883 15.5502 25.2489 14.6983 25.4645 14.4225C25.7465 14.0618 25.7455 14.01 25.4534 13.7501C25.3343 13.6442 25.1991 13.5237 25.1529 13.4821C24.7857 13.1516 24.5394 12.9759 24.8415 13.2598ZM10.3085 19.345C10.3442 19.3948 10.3802 19.4356 10.3885 19.4356C10.3969 19.4356 10.3745 19.3948 10.3389 19.345C10.3033 19.2951 10.2673 19.2543 10.2591 19.2543C10.2507 19.2543 10.2731 19.2951 10.3085 19.345ZM10.7156 19.8663C10.7623 19.9287 10.8063 19.9796 10.8132 19.9796C10.8399 19.9796 10.7654 19.8703 10.6997 19.813C10.6432 19.7638 10.6461 19.7735 10.7156 19.8663ZM11.0012 20.244C11.0391 20.298 11.0766 20.3423 11.0844 20.3423C11.1106 20.3423 11.0395 20.2319 10.9855 20.1887C10.9477 20.1582 10.9521 20.1744 11.0012 20.244ZM11.2351 20.5392C11.2795 20.597 11.3202 20.6446 11.3258 20.6446C11.3513 20.6446 11.2282 20.4623 11.1937 20.4491C11.1722 20.4407 11.1909 20.4814 11.2351 20.5392ZM11.4162 20.7729C11.4649 20.827 11.5153 20.8841 11.5278 20.8999C11.5423 20.9178 11.5509 20.9176 11.5509 20.899C11.5509 20.8634 11.3818 20.6747 11.35 20.6747C11.3375 20.6747 11.3673 20.7189 11.4162 20.7729ZM11.6729 21.0979C11.7427 21.1893 11.8143 21.2694 11.8319 21.2758C11.8688 21.2894 11.8492 21.2641 11.67 21.0676L11.546 20.9316L11.6729 21.0979ZM11.9712 21.4814C11.9901 21.518 12.0201 21.5566 12.0377 21.5675C12.0981 21.6047 12.0844 21.5664 12.0105 21.4906C11.9436 21.4223 11.9399 21.4214 11.9712 21.4814Z" fill="#FC3146"/>
<path fill-rule="evenodd" clip-rule="evenodd" d="M26.146 9.91664C26.1549 9.95 26.1764 9.98627 26.1938 9.99715C26.2138 10.0095 26.2182 9.99715 26.2053 9.96397C26.1942 9.93495 26.1851 9.89869 26.1851 9.88346C26.1851 9.86822 26.1728 9.85571 26.1577 9.85571C26.1426 9.85571 26.1373 9.88309 26.146 9.91664ZM26.2286 10.2962C26.2351 10.3281 26.2493 10.3767 26.2602 10.404C26.2711 10.4316 26.2662 10.4626 26.2491 10.4731C26.232 10.4836 26.224 10.5089 26.2315 10.529C26.2511 10.5825 26.0619 10.7623 25.9861 10.7623C25.9753 10.7623 25.9168 10.8012 25.8561 10.8488C25.7954 10.8963 25.6979 10.9595 25.6397 10.989C25.5814 11.0186 25.5269 11.0521 25.5185 11.0633C25.5101 11.0748 25.4556 11.1103 25.3972 11.1424C25.3389 11.1743 25.2845 11.2073 25.2762 11.2157C25.1609 11.3306 24.9428 11.41 24.9428 11.3372C24.9428 11.3208 24.9097 11.2991 24.8693 11.2889C24.8288 11.2789 24.7884 11.2514 24.7793 11.228C24.7702 11.2046 24.7457 11.1854 24.7246 11.1854C24.6864 11.1854 25.0555 11.5352 25.1549 11.5934C25.2031 11.6217 25.5425 11.9172 25.7321 12.0962C25.7785 12.1399 25.8428 12.1943 25.875 12.217C25.9223 12.2503 26.12 12.4206 26.3798 12.651C26.5407 12.7939 26.689 12.8596 26.7125 12.7985C26.7221 12.7734 26.7403 12.7595 26.7529 12.7673C26.7879 12.7889 26.7643 12.5169 26.7123 12.2984C26.6992 12.2431 26.687 12.191 26.6852 12.1827C26.6836 12.1743 26.6596 12.0655 26.632 11.941C26.6043 11.8162 26.5745 11.6735 26.5658 11.6237C26.5393 11.473 26.4996 11.3043 26.4271 11.0343C26.3893 10.8929 26.36 10.746 26.3624 10.7078C26.3646 10.6695 26.3542 10.6456 26.3391 10.6548C26.3242 10.6641 26.3186 10.6459 26.3269 10.6146C26.3351 10.5832 26.3271 10.5484 26.3089 10.5373C26.2907 10.5261 26.276 10.5034 26.276 10.4867C26.276 10.47 26.2891 10.4646 26.3051 10.4744C26.3218 10.4849 26.3202 10.4506 26.3009 10.3932C26.2626 10.2786 26.2109 10.2093 26.2286 10.2962ZM24.5186 11.0218C24.5186 11.0394 24.5528 11.0858 24.5944 11.125C24.6361 11.164 24.6701 11.1861 24.6701 11.1741C24.6701 11.1624 24.6361 11.1159 24.5944 11.071C24.5528 11.0262 24.5186 11.0041 24.5186 11.0218ZM23.4582 12.0918C23.4582 12.1285 23.5431 12.1684 23.568 12.1435C23.5771 12.1344 23.5561 12.112 23.5213 12.0935C23.4775 12.0701 23.4582 12.0695 23.4582 12.0918ZM23.5902 12.2278C23.6017 12.2574 23.5635 12.3051 23.4799 12.3658C23.2874 12.5056 22.9798 12.6964 22.9469 12.6964C22.9309 12.6964 22.9132 12.7067 22.9078 12.719C22.9021 12.7316 22.8431 12.7771 22.7765 12.8204C22.6364 12.9113 22.2179 13.1811 21.9685 13.3415C21.8739 13.4023 21.783 13.452 21.7665 13.452C21.7498 13.452 21.7316 13.4621 21.7261 13.4746C21.7205 13.4871 21.6614 13.5327 21.5949 13.5758C21.3031 13.7649 20.9448 13.9954 20.7768 14.1017C20.6768 14.1649 20.5199 14.2667 20.4283 14.328C20.3367 14.3893 20.248 14.4449 20.2314 14.4518C20.2147 14.4587 20.0989 14.5312 19.9738 14.6128C19.849 14.6944 19.6717 14.8087 19.5799 14.8667C19.4883 14.9247 19.3383 15.0223 19.2467 15.0836C19.1551 15.1447 19.0663 15.2005 19.0498 15.2074C19.0331 15.2143 18.9205 15.2845 18.7998 15.3635C18.6789 15.4424 18.4813 15.5717 18.3604 15.6506C18.2396 15.7294 18.1272 15.7993 18.1105 15.8056C18.0938 15.8119 18.0598 15.8348 18.0347 15.8564C18.0096 15.8779 17.955 15.9138 17.9134 15.9362C17.8718 15.9583 17.7356 16.043 17.6106 16.124C17.4857 16.2051 17.3288 16.3068 17.2621 16.3501C17.1955 16.3935 17.1364 16.439 17.1308 16.4515C17.1253 16.4638 17.103 16.4742 17.0815 16.4742C17.0599 16.4742 17.0254 16.4945 17.0046 16.5195C16.8836 16.6649 16.8574 16.5761 16.8261 15.9149C16.8101 15.5755 16.8058 15.9498 16.813 17.0181C16.8288 19.3422 16.8123 19.2051 17.0563 19.0481C17.151 18.987 17.3548 18.8555 17.5091 18.7558C17.6635 18.6561 17.8991 18.5065 18.0325 18.4234C18.1661 18.3402 18.2757 18.262 18.2763 18.2495C18.2768 18.2372 18.2919 18.2269 18.3099 18.2269C18.3408 18.2269 18.9471 17.8446 19.0258 17.7755C19.0458 17.7578 19.0709 17.7434 19.0812 17.7434C19.1096 17.7434 19.4421 17.5213 19.4537 17.4947C19.4592 17.4818 19.4763 17.4715 19.4916 17.4715C19.5192 17.4715 20.1382 17.0812 20.2074 17.0201C20.2274 17.0024 20.2525 16.9879 20.2629 16.9879C20.2913 16.9879 20.6238 16.7659 20.6354 16.7391C20.6408 16.7264 20.6585 16.7159 20.6743 16.7159C20.7003 16.7159 21.1195 16.4537 21.1555 16.4149C21.1833 16.3849 21.2911 16.3215 21.3449 16.3035C21.374 16.2937 21.3978 16.2738 21.3978 16.2591C21.3978 16.2444 21.4125 16.2323 21.4305 16.2323C21.4689 16.2323 21.8021 16.0178 21.817 15.9837C21.8225 15.9708 21.8418 15.9603 21.8596 15.9603C21.8774 15.9603 21.9368 15.9264 21.9914 15.8848C22.0461 15.8433 22.099 15.8092 22.1092 15.8092C22.1281 15.8092 22.3101 15.6868 22.3371 15.656C22.3455 15.6464 22.3728 15.6295 22.3977 15.6183C22.4497 15.5951 22.5571 15.5294 22.5795 15.507C22.5878 15.4986 22.6424 15.4658 22.7007 15.4337C22.7591 15.4018 22.8136 15.3677 22.822 15.3583C22.8509 15.3251 23.0316 15.2049 23.0527 15.2049C23.0643 15.2049 23.1185 15.1708 23.173 15.1292C23.2277 15.0877 23.2806 15.0536 23.2908 15.0536C23.3079 15.0536 23.485 14.9363 23.5188 14.9026C23.5413 14.8801 23.6486 14.8145 23.7006 14.7913C23.7255 14.7802 23.7527 14.7631 23.7611 14.7537C23.7695 14.7441 23.824 14.7102 23.8824 14.6783C23.9407 14.6462 23.9953 14.6123 24.0036 14.6027C24.0325 14.5695 24.2132 14.4493 24.2343 14.4493C24.246 14.4493 24.3001 14.4154 24.3547 14.3737C24.4094 14.3321 24.4623 14.2982 24.4725 14.2982C24.4914 14.2982 24.6735 14.1756 24.7004 14.1448C24.7088 14.1352 24.7633 14.1013 24.8217 14.0692C24.8799 14.0373 24.9344 14.0043 24.9428 13.996C24.9735 13.9655 25.0807 13.9031 25.1322 13.8857C25.1613 13.8761 25.1853 13.8581 25.1853 13.8462C25.1853 13.8342 25.2224 13.8074 25.2678 13.7867C25.3411 13.7535 25.3445 13.7459 25.2982 13.72C25.2694 13.7038 25.2458 13.671 25.2458 13.6469C25.2458 13.6228 25.2253 13.603 25.2004 13.603C25.1753 13.603 25.1544 13.5862 25.1535 13.5653C25.1527 13.5444 25.1171 13.5004 25.0742 13.467C25.0315 13.4338 24.9195 13.3363 24.8257 13.2502C24.7317 13.1642 24.5684 13.0146 24.4626 12.9178C24.357 12.821 24.2523 12.7314 24.2301 12.7189C24.2078 12.7062 24.1363 12.6451 24.0711 12.5829C23.7024 12.2316 23.5479 12.1174 23.5902 12.2278ZM15.0676 17.6336C15.0656 17.7117 14.9131 17.8925 14.848 17.8939C14.8366 17.8943 14.8088 17.9115 14.7861 17.9322C14.7633 17.9531 14.7181 17.9862 14.6855 18.006C14.6528 18.0258 14.517 18.1112 14.3838 18.1959C14.2505 18.2805 14.1142 18.3663 14.0807 18.3866C14.0474 18.4067 14.0134 18.4316 14.0051 18.4417C13.9967 18.4519 13.9422 18.4847 13.8838 18.5144C13.7566 18.5795 13.5999 18.6865 13.5859 18.7181C13.5804 18.7304 13.5653 18.7407 13.5524 18.7407C13.5328 18.7407 13.1772 18.9612 13.0792 19.0341C13.002 19.0918 12.9254 19.1366 12.8763 19.1531C12.8472 19.1629 12.8234 19.1808 12.8234 19.193C12.8234 19.2051 12.7689 19.2396 12.7022 19.2695C12.6355 19.2996 12.5809 19.3339 12.5809 19.346C12.5809 19.3582 12.54 19.3848 12.49 19.4055C12.44 19.4262 12.3991 19.455 12.3991 19.4697C12.3991 19.4842 12.3875 19.4961 12.3733 19.4961C12.3517 19.4961 12.0016 19.7121 11.8976 19.7897C11.8203 19.8474 11.7438 19.8922 11.6947 19.9087C11.6656 19.9183 11.6418 19.9368 11.6418 19.9495C11.6418 19.962 11.5996 19.9897 11.5482 20.0111C11.4969 20.0323 11.4385 20.0646 11.4187 20.0827C11.2166 20.2677 11.0886 20.2862 11.0021 20.1433C10.9752 20.0991 10.9455 20.0753 10.9359 20.0905C10.9264 20.1058 10.9792 20.1839 11.053 20.2641C11.1268 20.3444 11.1873 20.422 11.1873 20.4367C11.1873 20.4514 11.1979 20.4633 11.2106 20.4633C11.2235 20.4633 11.2595 20.5105 11.2907 20.5682C11.3218 20.6258 11.3591 20.6659 11.3733 20.657C11.3876 20.6483 11.3996 20.6588 11.3998 20.6806C11.4002 20.7023 11.4342 20.7522 11.4756 20.7914C11.5169 20.8305 11.5513 20.878 11.5516 20.8971C11.5522 20.9161 11.6032 20.9877 11.6652 21.0563C11.7272 21.1248 11.7985 21.2115 11.8236 21.2489C11.8485 21.2864 11.887 21.3355 11.909 21.3586C11.931 21.3814 11.9408 21.4001 11.9307 21.4001C11.9207 21.4001 11.9506 21.4376 11.9976 21.4833C12.0445 21.529 12.0892 21.58 12.097 21.5966C12.105 21.6131 12.1212 21.6235 12.1332 21.6195C12.1452 21.6155 12.1712 21.6425 12.191 21.6793C12.2108 21.7163 12.2419 21.7633 12.2601 21.7838C12.3553 21.8913 12.384 21.9294 12.384 21.9484C12.384 21.9598 12.3964 21.9807 12.4117 21.9945C12.4275 22.009 12.4308 22.0048 12.4193 21.985C12.4084 21.966 12.4189 21.943 12.4429 21.9339C12.4668 21.9248 12.4904 21.9292 12.4957 21.9435C12.5009 21.958 12.6553 21.8692 12.8385 21.7462C13.0218 21.6233 13.1877 21.5223 13.2072 21.5218C13.2266 21.5214 13.247 21.5105 13.2526 21.4978C13.2581 21.4849 13.3377 21.4258 13.4293 21.3664C13.8842 21.0712 13.9618 21.0215 13.9898 21.0073C14.0065 20.9988 14.098 20.941 14.1929 20.8788C14.2879 20.8164 14.3788 20.7654 14.3948 20.7654C14.411 20.7654 14.4287 20.7551 14.4343 20.7422C14.4439 20.7201 14.6252 20.597 14.9064 20.4218C14.9929 20.368 15.036 20.3196 15.0375 20.274C15.0389 20.2369 15.0469 20.2235 15.0553 20.2443C15.0637 20.2653 15.0829 20.2748 15.098 20.2655C15.1324 20.2443 15.1293 17.6909 15.0947 17.6074C15.0731 17.5552 15.0695 17.5587 15.0676 17.6336ZM10.6116 19.7172C10.6116 19.7224 10.6559 19.7667 10.7101 19.8155L10.8085 19.9041L10.7196 19.806C10.6367 19.7145 10.6116 19.6938 10.6116 19.7172Z" fill="#FC5234"/>
<path d="M37.5919 17.915H35.5621V12.1193H37.5919V17.915ZM42.5578 10.3704H30.5961V8.34062H42.5578V10.3704ZM56.4471 15.5533C56.4471 15.881 56.3854 16.1874 56.262 16.4725C56.1343 16.7576 55.9641 17.0065 55.7513 17.2193C55.5343 17.4363 55.2811 17.6065 54.9918 17.7299C54.7024 17.8533 54.396 17.915 54.0726 17.915H46.8471C46.5195 17.915 46.2131 17.8533 45.928 17.7299C45.6386 17.6065 45.3876 17.4363 45.1748 17.2193C44.9578 17.0065 44.7876 16.7576 44.6642 16.4725C44.5365 16.1874 44.4727 15.881 44.4727 15.5533V8.34062H46.5024V15.5533C46.5024 15.6427 46.5365 15.7214 46.6046 15.7895C46.6684 15.8619 46.7493 15.898 46.8471 15.898H54.0726C54.1705 15.898 54.2535 15.8619 54.3216 15.7895C54.3854 15.7214 54.4173 15.6427 54.4173 15.5533V8.34062H56.4471V15.5533ZM70.3364 15.3363C70.3364 15.6895 70.2683 16.0214 70.1321 16.3321C69.9959 16.647 69.8108 16.9214 69.5768 17.1555C69.3385 17.3895 69.0619 17.5746 68.747 17.7108C68.4321 17.847 68.0981 17.915 67.7449 17.915H58.362V12.1193H67.7449C67.8215 12.1193 67.8938 12.1044 67.9619 12.0746C68.03 12.0449 68.0896 12.0044 68.1406 11.9534C68.1917 11.9023 68.2321 11.8427 68.2619 11.7746C68.2917 11.7066 68.3066 11.6342 68.3066 11.5576V10.9321C68.3066 10.8555 68.2917 10.7832 68.2619 10.7151C68.2321 10.647 68.1917 10.5874 68.1406 10.5364C68.0896 10.4853 68.03 10.4449 67.9619 10.4151C67.8938 10.3853 67.8215 10.3704 67.7449 10.3704H58.362V8.34062H67.7449C68.0981 8.34062 68.4321 8.40871 68.747 8.54488C69.0619 8.68105 69.3385 8.86615 69.5768 9.10019C69.8108 9.33849 69.9959 9.61508 70.1321 9.92998C70.2683 10.2449 70.3364 10.5789 70.3364 10.9321V11.5576C70.3364 11.8598 70.2895 12.1427 70.1959 12.4066C70.0981 12.6704 69.9661 12.9108 69.8002 13.1278C69.9661 13.3449 70.0981 13.5874 70.1959 13.8555C70.2895 14.1236 70.3364 14.4044 70.3364 14.698V15.3363ZM68.3066 14.698C68.3066 14.6257 68.2917 14.5555 68.2619 14.4874C68.2321 14.4236 68.1917 14.3661 68.1406 14.3151C68.0896 14.264 68.03 14.2236 67.9619 14.1938C67.8938 14.164 67.8215 14.1491 67.7449 14.1491H60.3917V15.898H67.7449C67.8215 15.898 67.8938 15.8831 67.9619 15.8533C68.03 15.8236 68.0896 15.7831 68.1406 15.7321C68.1917 15.681 68.2321 15.6214 68.2619 15.5533C68.2917 15.4853 68.3066 15.4129 68.3066 15.3363V14.698ZM83.7661 17.915H74.7661C74.4214 17.915 74.098 17.8491 73.7959 17.7172C73.4895 17.5853 73.2214 17.4065 72.9917 17.181C72.7619 16.9555 72.581 16.6895 72.4491 16.3831C72.3172 16.081 72.2512 15.7576 72.2512 15.4129V8.34062H74.281V15.4129C74.281 15.5406 74.3278 15.6533 74.4214 15.7512C74.5151 15.8491 74.6299 15.898 74.7661 15.898H83.7661V17.915ZM87.7107 17.915H85.681V8.34062H87.7107V17.915ZM99.5702 12.1193V10.881C99.5702 10.7406 99.5213 10.6193 99.4234 10.5172C99.3213 10.4193 99.2 10.3704 99.0596 10.3704H92.1533C92.0171 10.3704 91.9001 10.4193 91.8022 10.5172C91.7043 10.6193 91.6554 10.7406 91.6554 10.881V12.1193H99.5702ZM101.6 17.915H99.5702V14.1491H91.6554V17.915H89.6256V10.881C89.6256 10.5321 89.6916 10.2023 89.8235 9.89168C89.9554 9.5853 90.1362 9.31721 90.366 9.08743C90.5958 8.85764 90.8639 8.67466 91.1703 8.53849C91.4767 8.40658 91.8043 8.34062 92.1533 8.34062H99.0596C99.4085 8.34062 99.7383 8.40658 100.049 8.53849C100.355 8.67466 100.623 8.85764 100.853 9.08743C101.083 9.31721 101.266 9.5853 101.402 9.89168C101.534 10.2023 101.6 10.5321 101.6 10.881V17.915ZM115.489 17.915H113.46V10.9321C113.46 10.8555 113.445 10.7832 113.415 10.7151C113.385 10.647 113.345 10.5874 113.294 10.5364C113.243 10.4853 113.183 10.4449 113.115 10.4151C113.047 10.3853 112.974 10.3704 112.898 10.3704H103.515V8.34062H112.898C113.251 8.34062 113.585 8.40871 113.9 8.54488C114.215 8.68105 114.491 8.86615 114.73 9.10019C114.964 9.33849 115.149 9.61508 115.285 9.92998C115.421 10.2449 115.489 10.5789 115.489 10.9321V17.915ZM105.545 17.915H103.515V12.1193H105.545V17.915Z" fill="#FEFEFE"/>
</g>
<defs>
<clipPath id="clip0_1_4580">
<rect width="123" height="25.0824" fill="white" transform="translate(0 0.45874)"/>
</clipPath>
</defs>
</svg>
